<svg width="131" height="72" viewBox="0 0 131 72" fill="none" xmlns="http://www.w3.org/2000/svg">
<path d="M40.0518 21.7685C40.0518 21.7685 42.9745 18.1593 47.1001 19.2654C47.1001 19.2654 43.6689 22.5424 40.0518 21.7685Z" fill="#ECE3D1"/>
<path d="M50.0809 38.4816C46.2897 35.6326 46.3016 35.6172 46.3016 35.6172H27.5605H8.81944C8.81944 35.6172 8.83139 35.6326 5.04017 38.4816C1.87514 40.8597 0.00171188 38.9867 0.00171188 38.9867C-0.0818928 42.8629 3.36125 42.3578 3.36125 42.3578H27.5622H51.7632C51.7632 42.3578 55.2064 42.8629 55.1228 38.9867C55.1194 38.9867 53.2459 40.8597 50.0809 38.4816Z" fill="#ECE3D1"/>
<path d="M3.99939 43.6602L11.6996 54.0579C12.3087 54.8797 13.2693 55.3642 14.2896 55.3642H22.9572C25.4824 55.3642 27.5606 57.4188 27.5606 59.9527C27.5606 57.4188 29.6387 55.3642 32.1639 55.3642H40.8315C41.8518 55.3642 42.8124 54.8797 43.4216 54.0579L51.1217 43.6602H3.99939ZM27.3848 52.832C25.6103 52.832 24.1703 51.3887 24.1703 49.6064C24.1703 47.824 25.6086 46.3807 27.3848 46.3807C29.1593 46.3807 30.5993 47.824 30.5993 49.6064C30.5993 51.3887 29.1593 52.832 27.3848 52.832Z" fill="#ECE3D1"/>
<path d="M28.8163 62.0028C29.2804 61.6227 29.5756 61.0457 29.5756 60.4003C29.5756 59.2583 28.6525 58.332 27.5145 58.332C26.3764 58.332 25.4534 59.2583 25.4534 60.4003C25.4534 61.0937 25.7946 61.7066 26.3167 62.0816L24.6156 71.9999H27.4957H27.6237H30.5038L28.8163 62.0028Z" fill="#ECE3D1"/>
<path d="M47.2486 36.3403C47.2486 36.3403 46.1634 35.551 45.6772 33.9707C45.6772 33.9707 44.65 35.5253 42.2101 35.6161L47.2486 36.3403Z" fill="#ECE3D1"/>
<path d="M7.87592 36.3403C7.87592 36.3403 8.96107 35.551 9.44734 33.9707C9.44734 33.9707 10.4745 35.5253 12.9144 35.6161L7.87592 36.3403Z" fill="#ECE3D1"/>
<path d="M43.9078 5.89648H33.3975C30.497 5.89648 25.7963 5.89648 22.8958 5.89648H11.2133C8.31272 5.89648 5.96155 8.25579 5.96155 11.1664V41.6011H49.1579V11.1664C49.1596 8.25579 46.8084 5.89648 43.9078 5.89648ZM38.465 19.4103C38.465 19.4103 42.1351 13.2021 42.1419 13.1028C42.1641 12.8203 42.3688 12.3255 42.7408 12.4317C43.0633 12.5241 43.2475 12.769 43.5205 12.9573C43.8839 13.2073 44.0648 13.3134 44.4299 13.56C44.6893 13.7346 45.0408 14.0428 44.8753 14.3869C44.7319 14.6848 44.5221 14.5633 44.244 14.9262C42.705 16.9363 39.975 20.8108 39.8658 21.1258C39.789 21.3433 39.8709 22.3791 39.1168 21.7456C37.9429 20.7594 37.6204 20.8827 37.3628 20.4906C37.2178 20.2698 37.4873 20.09 37.7501 19.9736C38.0333 19.8486 38.2824 19.6603 38.465 19.4103ZM40.9663 27.911C40.9663 27.911 38.6203 25.7075 39.5587 22.475C39.5587 22.4767 41.8672 24.4422 40.9663 27.911ZM38.6902 22.9013C38.395 23.1598 36.5097 26.1954 36.4244 26.4625C36.4244 26.4625 35.503 25.9592 34.3342 25.9078L36.5813 22.2336C36.7451 21.9716 36.827 21.6686 36.8373 21.3604C36.8475 21.0728 36.9158 20.7543 37.1717 20.8074C37.629 20.9015 37.6341 21.2474 38.9837 21.9751C39.8504 22.4408 38.8643 22.7506 38.6902 22.9013ZM32.8806 19.4668C33.1041 19.2545 33.2747 18.9908 33.3617 18.6946C33.3617 18.6946 35.0236 10.2093 34.998 10.1134C34.9229 9.83951 34.9502 9.30533 35.3375 9.27964C35.6719 9.25739 35.9279 9.42517 36.2486 9.50907C36.6752 9.62036 36.8799 9.65974 37.3082 9.7676C37.6119 9.84465 38.0453 10.0141 38.006 10.3942C37.9719 10.7247 37.7313 10.6802 37.5931 11.115C36.8202 13.5291 35.2573 19.501 35.2607 19.8332C35.2624 20.0643 35.6873 21.0111 34.7642 20.6704C33.3276 20.1397 33.0648 20.3657 32.6912 20.0832C32.4796 19.9274 32.6724 19.6671 32.8806 19.4668ZM32.6622 20.3451C33.1245 20.2783 33.2457 20.6019 34.7608 20.8296C35.7333 20.9752 34.9075 21.6018 34.7949 21.8038C34.6038 22.148 33.8275 25.6304 33.8377 25.9112C33.8377 25.9112 32.3892 25.9301 31.763 26.1989L32.5854 21.8894C32.6502 21.5881 32.6263 21.2748 32.5325 20.9803C32.4472 20.7047 32.4028 20.3828 32.6622 20.3451ZM29.0279 10.9746C33.3788 14.0787 32.2475 19.7784 32.2475 19.7784C28.6218 16.9003 29.0279 10.9746 29.0279 10.9746ZM32.2578 20.5095C28.7276 21.0351 26.7518 18.2341 26.7518 18.2341C30.5277 17.7838 32.2578 20.5095 32.2578 20.5095ZM17.5843 24.8497C17.5843 24.8497 18.3487 22.0538 21.1861 22.2473C23.0288 22.3723 23.9229 23.4526 24.2607 23.9817C24.2607 23.9817 25.7946 22.6582 27.6425 22.9835C30.224 23.4372 31.0907 25.502 31.2938 26.2554C31.2938 26.2554 28.5775 27.1029 27.7807 29.5718C27.7807 29.5718 26.0591 25.9215 22.1996 25.9061C18.6746 25.8924 16.9496 28.0959 16.9496 28.0959C16.9496 28.0959 15.7877 26.793 13.6378 27.3237C13.6378 27.3237 14.4107 24.2179 17.5843 24.8497ZM14.0934 34.3092C13.8682 34.3315 13.6412 34.328 13.4177 34.3006C12.5202 34.1894 11.5341 33.65 11.1297 32.8231C10.0718 30.659 11.8139 28.1832 14.0576 27.9298C15.9992 27.7107 17.0332 29.1369 17.0195 29.1626C17.5109 28.2294 19.5038 26.5276 22.5852 26.7057C25.6667 26.8837 27.4309 30.1984 27.4309 30.1984C24.3665 29.7995 23.4861 32.3043 23.4861 32.3043C19.8399 30.0443 16.6902 32.9292 16.6902 32.9292C16.6902 32.9292 17.2106 30.9278 15.559 30.4364C14.4329 30.1025 13.7726 30.7428 13.5815 31.0562C13.4553 31.2633 13.4501 31.4191 13.4996 31.5133L13.5099 31.5321C13.5969 31.6948 13.9569 31.7068 14.0644 31.5561C14.3766 31.1144 14.8185 30.8524 15.472 31.1811C16.4889 31.6896 16.1954 34.1072 14.0934 34.3092ZM39.0536 32.1485C38.9905 32.883 38.7209 33.6877 38.2671 34.3349H32.7884C32.5837 34.001 32.4506 33.6261 32.3977 33.222C32.2527 32.1023 32.785 31.063 33.9452 30.8387C35.2147 30.5922 35.9381 31.3421 36.2845 31.967C36.3851 32.1502 36.6189 32.2084 36.7963 32.0988C36.9635 31.9961 37.0232 31.7787 36.9277 31.6058C36.6138 31.0408 35.7692 29.9912 34.4844 29.9518C32.7355 29.8988 30.9457 31.3712 31.978 34.3229H16.1698C19.2103 31.1144 22.2662 32.1793 23.9485 33.2254C24.2403 32.0287 25.1497 30.2754 27.9837 30.9569C28.7924 27.6576 32.6195 25.7195 35.7794 27.0857C37.8644 27.9897 39.2482 29.8543 39.0536 32.1485ZM42.3757 34.3349H39.1287C40.5176 32.5526 39.6918 29.7481 39.6918 29.7481C43.8447 29.7481 44.6023 32.9395 44.6023 32.9395C43.7253 34.2887 42.3757 34.3349 42.3757 34.3349ZM40.0671 22.2319C40.0671 22.2319 44.4487 21.6823 47.2759 26.0756C47.2759 26.0756 42.6009 26.4317 40.0671 22.2319Z" fill="#ECE3D1"/>
<path d="M37.7552 4.67639H16.6459C16.6459 3.16801 17.8641 1.94727 19.3656 1.94727H35.0355C36.537 1.94556 37.7552 3.16801 37.7552 4.67639Z" fill="#ECE3D1"/>
<path d="M27.337 4.33853C28.531 4.33853 29.4988 3.36731 29.4988 2.16926C29.4988 0.971212 28.531 0 27.337 0C26.1431 0 25.1753 0.971212 25.1753 2.16926C25.1753 3.36731 26.1431 4.33853 27.337 4.33853Z" fill="#ECE3D1"/>
<path d="M69.8781 50.7702C69.5591 50.7702 69.2673 50.7257 69.0046 50.6366C68.7418 50.5476 68.5081 50.4124 68.3016 50.2274C68.0952 50.0443 67.9331 49.796 67.817 49.4827C67.701 49.1694 67.643 48.8047 67.643 48.3869C67.643 47.6575 67.8358 47.0806 68.2197 46.6542C68.6036 46.2296 69.1564 46.0156 69.8764 46.0156C70.0983 46.0156 70.3098 46.0242 70.5094 46.043C70.7091 46.0619 70.8678 46.0807 70.9804 46.0995C71.093 46.1184 71.1595 46.1286 71.1766 46.1286C71.209 46.1286 71.2482 46.1252 71.2943 46.1166C71.3404 46.1081 71.3677 46.1047 71.3779 46.1047L71.598 47.3357L71.4564 47.411C71.3557 47.2073 71.2039 47.0617 70.9991 46.971C70.7944 46.8802 70.5265 46.8289 70.1955 46.8152C69.7195 46.8152 69.3612 46.9333 69.1206 47.1713C68.88 47.4093 68.7589 47.8151 68.7589 48.3869C68.7589 49.4382 69.2383 49.9638 70.1955 49.9638C70.535 49.9501 70.8029 49.8953 70.9991 49.8011C71.1953 49.707 71.3489 49.5375 71.4564 49.2926L71.598 49.368L71.4564 50.6863C71.4427 50.6863 71.4172 50.6829 71.3762 50.676C71.3353 50.6692 71.3063 50.6658 71.2909 50.6658C71.2875 50.6658 71.2619 50.6692 71.2124 50.676C71.1629 50.6829 71.0981 50.6914 71.0145 50.7017C70.9309 50.712 70.8353 50.7223 70.7278 50.7325C70.6204 50.7445 70.4907 50.7531 70.3388 50.7599C70.1887 50.7668 70.0334 50.7702 69.8781 50.7702Z" fill="#ECE3D1"/>
<path d="M78.9194 50.3935C78.9655 50.5237 79.061 50.5887 79.2077 50.5887V50.7685H77.7848V50.5887C77.882 50.5887 77.9366 50.5545 77.9469 50.4843L77.6875 49.8542C77.3787 49.9261 77.0306 49.9621 76.6467 49.9621C76.2884 49.9621 75.913 49.921 75.5223 49.8371L75.263 50.4843C75.2732 50.5545 75.3261 50.5887 75.4251 50.5887V50.7685H74.0021V50.5887C74.1522 50.5887 74.2495 50.5237 74.2955 50.3935L76.0069 46.2827C75.9966 46.2245 75.954 46.1954 75.8755 46.1954V46.0156H77.3377V46.1954C77.2627 46.1954 77.22 46.2245 77.2115 46.2827L78.9194 50.3935ZM76.6569 49.1454C76.9044 49.1454 77.1449 49.1283 77.3753 49.0957L76.6075 47.2141L75.8346 49.0752C76.1383 49.1214 76.4113 49.1454 76.6569 49.1454Z" fill="#ECE3D1"/>
<path d="M85.014 46.8551L85.0532 46.9921L84.7461 47.0588C84.7461 46.9219 84.6608 46.8534 84.4919 46.8534H83.2702V50.442C83.2702 50.5396 83.3231 50.5875 83.4323 50.5875V50.7673H82.1322V50.5875C82.2397 50.5875 82.2943 50.5396 82.2943 50.442V46.8534H81.0726C80.9071 46.8534 80.8235 46.9219 80.8235 47.0588L80.5113 46.9921L80.5505 46.8551L80.7706 45.9922C80.8201 46.0093 80.873 46.0179 80.9327 46.0179H84.6386C84.6966 46.0179 84.7512 46.0093 84.8007 45.9922L85.014 46.8551Z" fill="#ECE3D1"/>
<path d="M90.6582 49.931C90.8237 49.931 90.9073 49.8626 90.9073 49.7273L91.211 49.7975L91.182 49.931L91.0591 50.7871C91.0267 50.7751 90.9721 50.77 90.897 50.77H87.5921V50.5902C87.6996 50.5902 87.7542 50.5423 87.7542 50.4447V46.3424C87.7542 46.2448 87.6996 46.1969 87.5921 46.1969V46.0171H90.897C90.9721 46.0171 91.0267 46.012 91.0591 46L91.182 46.8561L91.211 46.993L90.9073 47.0598C90.9073 46.9228 90.8237 46.8543 90.6582 46.8543H88.737V47.9484H90.4091C90.5234 47.9484 90.5797 47.9022 90.5797 47.8114H90.7896V48.926H90.5797C90.5797 48.8336 90.5234 48.789 90.4091 48.789H88.737V49.9328H90.6582V49.931Z" fill="#ECE3D1"/>
<path d="M97.9062 50.3864C97.9386 50.4344 97.9949 50.4789 98.0751 50.5234C98.1553 50.5679 98.2304 50.5902 98.3021 50.5902V50.77H97.1231C96.7289 50.1964 96.3774 49.6554 96.072 49.1469C96.014 49.164 95.9031 49.1725 95.7393 49.1725L95.0602 49.1554V50.4447C95.0602 50.5422 95.1131 50.5902 95.2223 50.5902V50.77H93.8966V50.5902C94.0041 50.5902 94.0587 50.5422 94.0587 50.4447V46.3595C94.0587 46.2619 94.0058 46.214 93.8966 46.214V46.0342H94.0587L95.9611 45.9931C96.5907 45.9794 97.1026 46.1147 97.4984 46.4006C97.8943 46.6865 98.0922 47.0718 98.0922 47.558C98.0922 47.945 97.9966 48.2583 97.8038 48.4997C97.611 48.7411 97.3551 48.914 97.0309 49.0202L97.9062 50.3864ZM95.0602 48.4295C95.0705 48.4295 95.1336 48.4312 95.2513 48.4363C95.3691 48.4398 95.5073 48.4449 95.6694 48.4483C95.8315 48.4535 95.968 48.4552 96.0823 48.4552C96.1795 48.4552 96.2734 48.4483 96.3655 48.4363C96.4576 48.4243 96.5532 48.3987 96.6573 48.3593C96.7596 48.3199 96.8484 48.2703 96.9234 48.2086C96.9985 48.147 97.0599 48.0631 97.1094 47.9586C97.1589 47.8542 97.1828 47.7309 97.1828 47.5923C97.1828 47.4467 97.1589 47.32 97.1094 47.2105C97.0599 47.1009 96.9985 47.0136 96.9234 46.9468C96.8484 46.8817 96.7596 46.8286 96.659 46.7876C96.5583 46.7465 96.461 46.7208 96.3672 46.7054C96.2751 46.6917 96.1795 46.6848 96.0806 46.6848C95.9765 46.6848 95.782 46.6883 95.4987 46.6934C95.2155 46.6985 95.0688 46.7019 95.0585 46.7019V48.4295H95.0602Z" fill="#ECE3D1"/>
<path d="M102.347 46.1956C102.325 46.1956 102.303 46.1991 102.284 46.2042C102.264 46.2093 102.25 46.2162 102.24 46.223C102.23 46.2299 102.221 46.2402 102.213 46.2539C102.204 46.2675 102.199 46.2778 102.197 46.283C102.196 46.2881 102.194 46.3001 102.191 46.3172L102.185 46.3429V50.4451C102.185 50.5427 102.24 50.5907 102.347 50.5907V50.7704H101.042V50.5907C101.15 50.5907 101.204 50.5427 101.204 50.4451V46.3429C101.204 46.2453 101.15 46.1973 101.042 46.1973V46.0176H102.347V46.1956Z" fill="#ECE3D1"/>
<path d="M110.02 46.0156V46.1954C109.998 46.1954 109.976 46.1988 109.957 46.204C109.937 46.2091 109.923 46.2159 109.913 46.2228C109.903 46.2296 109.894 46.2399 109.886 46.2536C109.877 46.2673 109.872 46.2776 109.87 46.2827C109.868 46.2879 109.867 46.2998 109.863 46.317L109.858 46.3426V50.7702H108.666C108.666 50.6914 108.596 50.5562 108.456 50.361L106.487 47.7278H106.466V50.4449C106.466 50.5425 106.519 50.5904 106.628 50.5904V50.7702H105.323V50.5904C105.431 50.5904 105.485 50.5425 105.485 50.4449V46.3426C105.485 46.2451 105.432 46.1971 105.323 46.1971V46.0173H106.516C106.529 46.1184 106.582 46.2502 106.678 46.4146L108.857 49.2293H108.877V46.3409C108.877 46.2433 108.824 46.1954 108.72 46.1954V46.0156H110.02Z" fill="#ECE3D1"/>
<path d="M116.927 48.4031V48.5829C116.905 48.5829 116.883 48.5863 116.864 48.5932C116.845 48.6 116.83 48.6086 116.82 48.6189C116.809 48.6291 116.801 48.6411 116.792 48.6582C116.784 48.6754 116.779 48.689 116.777 48.6976C116.775 48.7062 116.774 48.7199 116.77 48.7353C116.767 48.7507 116.765 48.7592 116.765 48.7627V50.0605C116.765 50.1683 116.785 50.2728 116.828 50.3686C116.627 50.533 116.385 50.6494 116.103 50.7213C115.821 50.7933 115.398 50.8275 114.834 50.8275C114.576 50.8275 114.337 50.8001 114.115 50.7436C113.893 50.6871 113.687 50.5981 113.494 50.4748C113.301 50.3515 113.138 50.1957 113.001 50.0091C112.865 49.8225 112.757 49.5931 112.679 49.3174C112.6 49.0435 112.561 48.7353 112.561 48.3929C112.561 47.6498 112.757 47.0625 113.148 46.6294C113.539 46.1962 114.102 45.9805 114.834 45.9805C114.945 45.9805 115.182 45.9856 115.545 45.9976C115.909 46.0096 116.098 46.0147 116.115 46.0147C116.147 46.0147 116.187 46.0113 116.233 46.0027C116.279 45.9942 116.306 45.9907 116.316 45.9907L116.547 47.1721L116.4 47.2474C116.207 46.8742 115.687 46.7218 114.835 46.7886C114.656 46.8023 114.501 46.8365 114.368 46.8913C114.236 46.9461 114.119 47.0317 114.013 47.1499C113.909 47.268 113.83 47.4306 113.776 47.6378C113.723 47.845 113.696 48.0984 113.696 48.3946C113.696 48.9322 113.786 49.3345 113.965 49.605C114.144 49.8756 114.434 50.0108 114.835 50.0108C115.255 50.0108 115.574 49.9612 115.789 49.8653V48.7627C115.789 48.6428 115.734 48.5829 115.627 48.5829V48.4031H116.927Z" fill="#ECE3D1"/>
<path d="M108.805 32.1347H99.8137V31.746C99.8137 31.1861 100.266 30.7324 100.824 30.7324H109.816V31.1211C109.816 31.6809 109.363 32.1347 108.805 32.1347Z" fill="#ECE3D1"/>
<path d="M78.7266 24.5367V41.8223H82.8488V23.0729C82.8488 22.6003 82.4667 22.2168 81.9957 22.2168H78.7266V24.5367Z" fill="#ECE3D1"/>
<path d="M82.4871 24.7847H82.8488C83.516 24.7847 84.0568 24.242 84.0568 23.5726V23.1702C84.0568 22.6429 84.4834 22.2148 85.0089 22.2148H92.6101C93.1356 22.2148 93.5622 22.6429 93.5622 23.1702V41.8221H89.44V23.487H86.2664V24.956C86.2664 25.4833 85.8398 25.9113 85.3143 25.9113H82.4888" fill="#ECE3D1"/>
<path d="M105.164 24.7847H105.526C106.193 24.7847 106.734 24.242 106.734 23.5726V23.1702C106.734 22.6429 107.161 22.2148 107.686 22.2148H115.287C115.813 22.2148 116.239 22.6429 116.239 23.1702V40.7537C116.239 41.3444 115.763 41.8221 115.175 41.8221H112.116V23.487H108.918V24.956C108.918 25.4833 108.492 25.9113 107.966 25.9113H105.164" fill="#ECE3D1"/>
<path d="M101.467 24.5367V41.8223H105.589V23.0729C105.589 22.6003 105.207 22.2168 104.736 22.2168H101.467V24.5367Z" fill="#ECE3D1"/>
<path d="M112.112 30.3438V39.6731C112.112 40.1559 111.721 40.5497 111.239 40.5497H102.063V41.8218H112.11C112.81 41.8218 113.378 41.2517 113.378 40.5497V30.3438H112.112Z" fill="#ECE3D1"/>
<path d="M64.908 19.7939H74.1727C74.5822 19.7939 74.9132 19.4617 74.9132 19.0508V18.1074H72.3164L70.2177 19.1861H67.4315L66.0187 18.1074H64.1675V19.0508C64.1675 19.4617 64.4985 19.7939 64.908 19.7939Z" fill="#ECE3D1"/>
<path d="M76.4266 22.2558H72.1952C72.1952 21.6959 71.7431 21.2422 71.1851 21.2422H69.2691H67.1261C66.5681 21.2422 66.116 21.6959 66.116 22.2558H63.5549C62.997 22.2558 62.5449 22.7095 62.5449 23.2693V41.911H65.0018V34.8861H73.3128V41.7346H77.4384V23.2693C77.4367 22.7095 76.9846 22.2558 76.4266 22.2558ZM73.2923 32.5063C73.2923 33.0576 72.847 33.5027 72.2993 33.5027H70.1136C69.5762 33.5027 69.1411 33.9393 69.1411 34.4786C69.1411 33.9393 68.706 33.5027 68.1686 33.5027H65.9829C65.4847 33.5027 65.0718 33.1329 65.0018 32.6535V24.4285C65.0018 23.8686 65.454 23.4149 66.0119 23.4149H68.259C68.8169 23.4149 69.2691 22.9612 69.2691 22.4013C69.2691 22.9612 69.7212 23.4149 70.2791 23.4149H72.301C72.8589 23.4149 73.3111 23.8686 73.3111 24.4285V32.5063H73.2923Z" fill="#ECE3D1"/>
<path d="M123.153 27.9829C123.153 27.9829 124.561 20.9358 131 19.4668C131 19.4668 128.656 26.4283 123.153 27.9829Z" fill="#ECE3D1"/>
<path d="M123.153 28.978C123.153 28.978 126.422 26.6923 130.517 29.0071C130.517 29.0071 126.934 31.262 123.153 28.978Z" fill="#ECE3D1"/>
<path d="M121.889 26.6615V23.0729C121.889 22.6003 121.507 22.2168 121.036 22.2168H117.767V24.5367V26.6615H117.197V27.3121C117.197 27.6271 117.451 27.8839 117.767 27.8839H121.889H121.916C122.23 27.8839 122.486 27.6288 122.486 27.3121V27.2333C122.486 26.9183 122.232 26.6615 121.916 26.6615H121.889Z" fill="#ECE3D1"/>
<path d="M122.486 29.5562C122.486 29.2412 122.232 28.9844 121.916 28.9844H121.889H117.767C117.453 28.9844 117.197 29.2395 117.197 29.5562V29.635C117.197 29.95 117.451 30.2068 117.767 30.2068V41.8219H120.851C121.425 41.8219 121.891 41.3562 121.891 40.7792V30.2068H122.488V29.5562H122.486Z" fill="#ECE3D1"/>
</svg>
