<svg width="168" height="92" viewBox="0 0 168 92" fill="none" xmlns="http://www.w3.org/2000/svg">
<path d="M10.1157 46.435C10.1157 46.435 11.507 45.4265 12.1305 43.4072C12.1305 43.4072 13.4475 45.3937 16.576 45.5096L10.1157 46.435Z" fill="#282B2D"/>
<path d="M7.66101 53.1575V14.2689C7.66101 10.5498 10.6757 7.53516 14.3948 7.53516H29.374C33.0931 7.53516 39.1202 7.53516 42.8393 7.53516H56.3156C60.0347 7.53516 63.0493 10.5498 63.0493 14.2689V53.1575H7.66101Z" fill="#AF9574"/>
<path d="M35.6374 37.7863C35.6374 37.7863 33.43 33.1221 28.4814 33.1024C23.9616 33.0849 21.7499 35.9005 21.7499 35.9005C21.7499 35.9005 20.26 34.2357 17.5035 34.9138C17.5035 34.9138 18.4946 30.9454 22.5659 31.7526C22.5659 31.7526 23.546 28.1801 27.1841 28.4273C29.5469 28.587 30.6932 29.9674 31.1264 30.6434C31.1264 30.6434 33.0931 28.9524 35.4624 29.368C38.7724 29.9478 39.8838 32.5861 40.1441 33.5487C40.1419 33.5487 36.6591 34.6316 35.6374 37.7863Z" fill="#ECE3D1"/>
<path d="M30.1332 41.2787C30.1332 41.2787 31.262 38.0781 35.1912 38.5879C35.1912 38.5879 32.9291 34.3525 28.9781 34.1249C25.0271 33.8974 22.4719 36.072 21.8418 37.2643C21.8593 37.2315 20.5335 35.4091 18.0439 35.6891C15.1671 36.0129 12.9313 39.1763 14.2898 41.9416C14.8083 42.9983 16.0706 43.6874 17.2235 43.8296C17.5101 43.8646 17.8011 43.869 18.0899 43.8405C20.7851 43.5824 21.1614 40.4933 19.8597 39.8436C19.0218 39.4236 18.4552 39.7583 18.0549 40.3227C17.9192 40.5152 17.4576 40.4999 17.3439 40.2921L17.3307 40.268C17.2651 40.1477 17.2739 39.9486 17.4358 39.6839C17.6808 39.2835 18.5274 38.4653 19.9713 38.8919C22.089 39.5176 21.4218 42.0772 21.4218 42.0772C21.4218 42.0772 25.4581 38.3932 30.1332 41.2787Z" fill="#ECE3D1"/>
<path d="M40.7435 33.4755L41.798 27.9691C41.8811 27.584 41.8505 27.1837 41.7302 26.8074C41.6186 26.4573 41.5617 26.0439 41.8964 25.9957C42.4893 25.9104 42.6446 26.3239 44.5873 26.6149C45.8343 26.8008 44.7755 27.6015 44.6311 27.8597C44.3861 28.2994 43.3907 32.7492 43.4038 33.108C43.4038 33.108 41.5464 33.132 40.7435 33.4755Z" fill="#282B2D"/>
<path d="M45.2239 25.3472C45.2261 25.6425 45.7708 26.8523 44.5873 26.417C42.7452 25.7388 42.4083 26.0276 41.9292 25.6666C41.6601 25.4653 41.9073 25.1306 42.1742 24.8768C42.4608 24.6056 42.6796 24.2687 42.7912 23.8902C42.7912 23.8902 44.922 13.0479 44.8892 12.9254C44.7929 12.5754 44.8279 11.8928 45.3245 11.86C45.7533 11.8316 46.0815 12.0459 46.4928 12.1531C47.0397 12.2953 47.3022 12.3457 47.8513 12.4835C48.2407 12.5819 48.7964 12.7985 48.7461 13.2842C48.7023 13.7042 48.3939 13.6495 48.2167 14.2052C47.2256 17.2899 45.2217 24.9206 45.2239 25.3472Z" fill="#282B2D"/>
<path d="M44.0404 33.1057L46.9216 28.4109C47.1316 28.0762 47.2366 27.6889 47.2498 27.2952C47.2629 26.9276 47.3504 26.5207 47.6786 26.5885C48.2649 26.7088 48.2714 27.1508 50.0019 28.0805C51.1111 28.6778 49.8466 29.0716 49.6234 29.2663C49.245 29.5966 46.8275 33.4754 46.7182 33.8167C46.7203 33.8145 45.5368 33.1713 44.0404 33.1057Z" fill="#282B2D"/>
<path d="M51.1329 26.9961C51.0344 27.2739 51.1394 28.5975 50.1724 27.788C48.6673 26.5279 48.2538 26.6854 47.9235 26.1844C47.7375 25.9022 48.0832 25.6725 48.4201 25.5238C48.7811 25.3641 49.1005 25.1234 49.3346 24.804C49.3346 24.804 54.0403 16.8714 54.0491 16.7445C54.0775 16.3835 54.34 15.7513 54.8169 15.8869C55.2304 16.0051 55.4667 16.3179 55.8167 16.5585C56.2827 16.878 56.5146 17.0136 56.9828 17.3286C57.3153 17.5518 57.766 17.9456 57.5538 18.3853C57.37 18.7659 57.1009 18.6106 56.7443 19.0744C54.7732 21.6428 51.2729 26.5935 51.1329 26.9961Z" fill="#282B2D"/>
<path d="M5.14514 55.7891L15.0183 69.075C15.7993 70.1251 17.0309 70.7442 18.3392 70.7442H29.4527C32.6905 70.7442 35.3552 73.3695 35.3552 76.6073C35.3552 73.3695 38.0198 70.7442 41.2576 70.7442H52.3711C53.6794 70.7442 54.911 70.1251 55.6921 69.075L65.5652 55.7891H5.14514Z" fill="#282B2D"/>
<path d="M41.3627 25.2716C41.3627 25.2716 42.8131 17.9888 37.2345 14.0225C37.2345 14.0225 36.7138 21.5941 41.3627 25.2716Z" fill="#ECE3D1"/>
<path d="M41.3778 26.205C41.3778 26.205 39.1573 22.7222 34.3181 23.2976C34.3181 23.2976 36.8515 26.8767 41.3778 26.205Z" fill="#ECE3D1"/>
<path d="M51.3713 27.8143C51.3713 27.8143 55.1189 23.2026 60.4087 24.6159C60.4087 24.6181 56.0071 28.8031 51.3713 27.8143Z" fill="#ECE3D1"/>
<path d="M51.3911 28.41C51.3911 28.41 57.0091 27.7077 60.6342 33.3214C60.632 33.3214 54.6399 33.7764 51.3911 28.41Z" fill="#ECE3D1"/>
<path d="M50.739 28.7197C50.739 28.7197 53.699 31.2334 52.5438 35.6657C52.5417 35.6635 49.5336 32.8479 50.739 28.7197Z" fill="#ECE3D1"/>
<path d="M44.2328 38.2705C45.878 38.3209 46.9609 39.6597 47.3656 40.3839C47.4881 40.6026 47.4116 40.8805 47.1972 41.0139C46.9696 41.1539 46.6699 41.0796 46.5409 40.8455C46.0967 40.0448 45.1713 39.0887 43.5415 39.4038C42.0539 39.6926 41.3713 41.0205 41.5573 42.4491C41.6251 42.9632 41.7957 43.4445 42.0582 43.8711H49.083C49.6649 43.0441 50.0127 42.0159 50.0915 41.0774C50.3409 38.148 48.5667 35.7634 45.8933 34.6105C41.8438 32.8647 36.9368 35.3412 35.8977 39.5569C32.2639 38.6862 31.0978 40.9264 30.7237 42.4556C28.5667 41.1189 24.6507 39.7582 20.75 43.8579H41.0191C39.6955 40.0863 41.9904 38.2049 44.2328 38.2705Z" fill="#ECE3D1"/>
<path d="M64.2307 49.1727C59.3696 45.5324 59.3849 45.5127 59.3849 45.5127H35.3552H11.3232C11.3232 45.5127 11.3386 45.5324 6.47747 49.1727C2.41928 52.2114 0.0171798 49.8181 0.0171798 49.8181C-0.0900177 54.7711 4.32477 54.1257 4.32477 54.1257H35.3552H66.3856C66.3856 54.1257 70.8004 54.7711 70.6932 49.8181C70.691 49.8181 68.2889 52.2114 64.2307 49.1727Z" fill="#282B2D"/>
<path d="M35.1277 67.5099C37.4041 67.5099 39.2494 65.6646 39.2494 63.3882C39.2494 61.1119 37.4041 59.2666 35.1277 59.2666C32.8514 59.2666 31.0061 61.1119 31.0061 63.3882C31.0061 65.6646 32.8514 67.5099 35.1277 67.5099Z" fill="#ECE3D1"/>
<path d="M36.9632 79.2266C37.5582 78.7409 37.9367 78.0036 37.9367 77.1789C37.9367 75.7197 36.7531 74.5361 35.2939 74.5361C33.8347 74.5361 32.6512 75.7197 32.6512 77.1789C32.6512 78.0649 33.0887 78.8481 33.7582 79.3272L31.577 92.0006H35.2699H35.434H39.1268L36.9632 79.2266Z" fill="#AF9574"/>
<path d="M60.5991 46.435C60.5991 46.435 59.2077 45.4265 58.5842 43.4072C58.5842 43.4072 57.2672 45.3937 54.1388 45.5096L60.5991 46.435Z" fill="#282B2D"/>
<path d="M50.1877 43.8723H54.3509C54.3509 43.8723 56.0814 43.8155 57.2037 42.0915C57.2037 42.0915 56.2324 38.0137 50.9075 38.0137C50.9097 38.0115 51.9685 41.5949 50.1877 43.8723Z" fill="#ECE3D1"/>
<path d="M48.4267 5.97548H21.3583C21.3583 4.04811 22.9203 2.48828 24.8455 2.48828H44.9374C46.8647 2.48828 48.4267 4.04811 48.4267 5.97548Z" fill="#AF9574"/>
<path d="M35.0664 5.54364C36.5972 5.54364 37.8382 4.30266 37.8382 2.77182C37.8382 1.24099 36.5972 0 35.0664 0C33.5355 0 32.2946 1.24099 32.2946 2.77182C32.2946 4.30266 33.5355 5.54364 35.0664 5.54364Z" fill="#AF9574"/>
<path d="M89.6125 64.8702C89.2034 64.8702 88.8293 64.8133 88.4946 64.6995C88.1576 64.5858 87.8579 64.4108 87.591 64.1767C87.3263 63.9426 87.1185 63.6254 86.9697 63.225C86.821 62.8247 86.7466 62.3587 86.7466 61.8249C86.7466 60.8929 86.9938 60.1557 87.486 59.6109C87.9783 59.0662 88.6871 58.7949 89.6103 58.7949C89.8947 58.7949 90.166 58.8059 90.4219 58.8299C90.6779 58.854 90.8813 58.8781 91.0257 58.9021C91.1723 58.9262 91.2554 58.9393 91.2773 58.9393C91.3189 58.9393 91.3692 58.9349 91.4283 58.924C91.4873 58.9131 91.5223 58.9087 91.5355 58.9087L91.8177 60.4816L91.6361 60.5779C91.507 60.3176 91.3101 60.1316 91.0498 60.0157C90.7895 59.8997 90.4438 59.8341 90.0194 59.8166C89.409 59.8166 88.9496 59.9675 88.6411 60.2716C88.3327 60.5757 88.1773 61.0942 88.1773 61.8249C88.1773 63.1682 88.7921 63.8398 90.0194 63.8398C90.4547 63.8223 90.7982 63.7523 91.0498 63.6319C91.3036 63.5116 91.4983 63.295 91.6361 62.9822L91.8177 63.0785L91.6361 64.763C91.6186 64.763 91.5858 64.7586 91.5333 64.7499C91.4808 64.7411 91.4436 64.7367 91.4239 64.7367C91.4195 64.7367 91.3867 64.7411 91.3233 64.7499C91.2598 64.7586 91.1767 64.7696 91.0695 64.7827C90.9623 64.7958 90.8398 64.8089 90.702 64.8221C90.5641 64.8374 90.3979 64.8483 90.2032 64.8571C90.0106 64.8658 89.8137 64.8702 89.6125 64.8702Z" fill="#AF9574"/>
<path d="M101.207 64.3908C101.266 64.5571 101.389 64.6424 101.577 64.6424V64.8721H99.7525V64.6424C99.8772 64.6424 99.9472 64.5987 99.9603 64.509L99.6278 63.7039C99.2318 63.7958 98.7855 63.8417 98.2933 63.8417C97.8339 63.8417 97.3526 63.7892 96.8516 63.682L96.5191 64.509C96.5322 64.5987 96.6 64.6424 96.7269 64.6424V64.8721H94.9023V64.6424C95.0949 64.6424 95.2196 64.5593 95.2786 64.3908L97.4729 59.1382C97.4598 59.0638 97.4051 59.0266 97.3045 59.0266V58.7969H99.1793V59.0266C99.0831 59.0266 99.0284 59.0638 99.0152 59.1382L101.207 64.3908ZM98.3042 62.796C98.6215 62.796 98.9299 62.7741 99.2252 62.7326L98.2408 60.3283L97.2498 62.7063C97.6414 62.7654 97.9914 62.796 98.3042 62.796Z" fill="#AF9574"/>
<path d="M109.02 59.8702L109.07 60.0452L108.674 60.1305C108.674 59.9555 108.565 59.8702 108.348 59.8702H106.782V64.4556C106.782 64.5803 106.852 64.6416 106.989 64.6416V64.8713H105.322V64.6416C105.46 64.6416 105.53 64.5803 105.53 64.4556V59.8702H103.964C103.752 59.8702 103.644 59.9577 103.644 60.1305L103.244 60.0452L103.294 59.8702L103.577 58.7676C103.64 58.7895 103.708 58.8004 103.785 58.8004H108.536C108.611 58.8004 108.681 58.7895 108.744 58.7676L109.02 59.8702Z" fill="#AF9574"/>
<path d="M116.259 63.7981C116.471 63.7981 116.578 63.7106 116.578 63.5378L116.968 63.6297L116.93 63.8003L116.773 64.8942C116.731 64.8788 116.661 64.8723 116.565 64.8723H112.327V64.6426C112.465 64.6426 112.535 64.5813 112.535 64.4566V59.2149C112.535 59.0902 112.465 59.0289 112.327 59.0289V58.7992H116.565C116.661 58.7992 116.729 58.7927 116.773 58.7773L116.93 59.8712L116.968 60.0462L116.578 60.1315C116.578 59.9565 116.471 59.8712 116.259 59.8712H113.795V61.2691H115.939C116.086 61.2691 116.158 61.2101 116.158 61.0941H116.427V62.5183H116.158C116.158 62.4002 116.086 62.3433 115.939 62.3433H113.795V63.8047H116.259V63.7981Z" fill="#AF9574"/>
<path d="M125.55 64.3815C125.591 64.4427 125.664 64.4996 125.767 64.5565C125.869 64.6133 125.966 64.6418 126.057 64.6418V64.8715H124.546C124.04 64.1386 123.59 63.4473 123.198 62.7976C123.124 62.8194 122.982 62.8304 122.772 62.8304L121.901 62.8085V64.4558C121.901 64.5805 121.969 64.6418 122.109 64.6418V64.8715H120.411V64.6418C120.549 64.6418 120.619 64.5805 120.619 64.4558V59.236C120.619 59.1113 120.549 59.05 120.411 59.05V58.8203H120.619L123.058 58.7678C123.865 58.7503 124.522 58.9231 125.029 59.2885C125.537 59.6538 125.791 60.1461 125.791 60.7674C125.791 61.2618 125.668 61.6621 125.421 61.9706C125.174 62.2791 124.843 62.5 124.43 62.6357L125.55 64.3815ZM121.903 61.8809C121.916 61.8809 121.997 61.8831 122.148 61.8897C122.299 61.8962 122.476 61.9006 122.684 61.905C122.892 61.9093 123.067 61.9137 123.213 61.9137C123.338 61.9137 123.461 61.905 123.577 61.8897C123.693 61.8743 123.817 61.8415 123.951 61.7912C124.084 61.7409 124.196 61.6775 124.292 61.5987C124.388 61.5199 124.467 61.4149 124.53 61.2793C124.594 61.1437 124.625 60.9883 124.625 60.8111C124.625 60.6273 124.594 60.4633 124.53 60.3233C124.467 60.1833 124.388 60.0717 124.292 59.9863C124.196 59.901 124.082 59.8354 123.953 59.7829C123.824 59.7304 123.699 59.6976 123.579 59.6779C123.461 59.6604 123.338 59.6516 123.211 59.6516C123.078 59.6516 122.828 59.656 122.465 59.6626C122.102 59.6691 121.914 59.6735 121.901 59.6735V61.8809H121.903Z" fill="#AF9574"/>
<path d="M131.247 59.0283C131.218 59.0283 131.19 59.0327 131.166 59.0392C131.142 59.0458 131.122 59.0546 131.109 59.0633C131.096 59.0721 131.085 59.0852 131.074 59.1027C131.063 59.1202 131.056 59.1333 131.054 59.1399C131.052 59.1464 131.05 59.1618 131.045 59.1836L131.039 59.2165V64.4582C131.039 64.5829 131.109 64.6441 131.247 64.6441V64.8739H129.573V64.6441C129.711 64.6441 129.781 64.5829 129.781 64.4582V59.2165C129.781 59.0918 129.711 59.0305 129.573 59.0305V58.8008H131.247V59.0283Z" fill="#AF9574"/>
<path d="M141.085 58.7969V59.0266C141.056 59.0266 141.028 59.031 141.004 59.0375C140.98 59.0441 140.96 59.0528 140.947 59.0616C140.934 59.0703 140.923 59.0835 140.912 59.101C140.901 59.1185 140.895 59.1316 140.892 59.1382C140.89 59.1447 140.888 59.16 140.884 59.1819L140.877 59.2147V64.8721H139.348C139.348 64.7715 139.258 64.5987 139.079 64.3493L136.552 60.9846H136.526V64.4565C136.526 64.5812 136.596 64.6424 136.734 64.6424V64.8721H135.06V64.6424C135.198 64.6424 135.268 64.5812 135.268 64.4565V59.2147C135.268 59.09 135.198 59.0288 135.06 59.0288V58.7991H136.589C136.607 58.926 136.674 59.0966 136.797 59.3066L139.593 62.9054H139.619V59.2147C139.619 59.09 139.551 59.0288 139.418 59.0288V58.7991H141.085V58.7969Z" fill="#AF9574"/>
<path d="M149.938 61.8473V62.077C149.91 62.077 149.882 62.0814 149.857 62.0902C149.831 62.0989 149.814 62.1098 149.801 62.123C149.787 62.1361 149.777 62.1514 149.766 62.1733C149.755 62.1952 149.748 62.2105 149.746 62.2236C149.744 62.2367 149.742 62.252 149.737 62.2717C149.733 62.2914 149.731 62.3024 149.731 62.3067V63.965C149.731 64.1028 149.757 64.2363 149.812 64.3588C149.553 64.5688 149.243 64.7198 148.882 64.8095C148.521 64.8992 147.978 64.9451 147.254 64.9451C146.924 64.9451 146.617 64.9101 146.333 64.8379C146.049 64.7679 145.784 64.652 145.537 64.4944C145.29 64.3369 145.08 64.1378 144.905 63.8994C144.729 63.6609 144.592 63.3678 144.491 63.0177C144.39 62.6677 144.34 62.2739 144.34 61.8364C144.34 60.8869 144.592 60.1365 145.093 59.583C145.594 59.0296 146.316 58.7539 147.254 58.7539C147.396 58.7539 147.7 58.7605 148.166 58.7758C148.632 58.7911 148.875 58.7976 148.897 58.7976C148.939 58.7976 148.989 58.7933 149.048 58.7823C149.107 58.7714 149.142 58.767 149.155 58.767L149.451 60.2765L149.262 60.3728C149.015 59.8959 148.348 59.7012 147.256 59.7865C147.027 59.804 146.827 59.8477 146.657 59.9178C146.488 59.9878 146.335 60.0971 146.202 60.2481C146.068 60.3991 145.968 60.6069 145.898 60.8716C145.828 61.1363 145.795 61.4601 145.795 61.8386C145.795 62.5255 145.911 63.0396 146.141 63.3853C146.37 63.7309 146.742 63.9016 147.256 63.9016C147.794 63.9016 148.204 63.8403 148.479 63.7156V62.3089C148.479 62.1558 148.409 62.0792 148.271 62.0792V61.8495H149.938V61.8473Z" fill="#AF9574"/>
<path d="M139.527 41.0613H127.998V40.5647C127.998 39.8493 128.578 39.2695 129.293 39.2695H140.822V39.7661C140.82 40.4837 140.242 41.0613 139.527 41.0613Z" fill="#282B2D"/>
<path d="M100.96 31.352V53.4391H106.245V29.4815C106.245 28.8777 105.755 28.3877 105.152 28.3877H100.96V31.352Z" fill="#282B2D"/>
<path d="M105.782 31.6695H106.246C107.101 31.6695 107.794 30.976 107.794 30.1206V29.6065C107.794 28.9327 108.341 28.3857 109.015 28.3857H118.761C119.435 28.3857 119.982 28.9327 119.982 29.6065V53.4393H114.697V30.0112H110.627V31.8883C110.627 32.5621 110.081 33.109 109.407 33.109H105.784" fill="#282B2D"/>
<path d="M134.856 31.6695H135.32C136.176 31.6695 136.869 30.976 136.869 30.1206V29.6065C136.869 28.9327 137.416 28.3857 138.09 28.3857H147.836C148.51 28.3857 149.057 28.9327 149.057 29.6065V52.0742C149.057 52.829 148.446 53.4393 147.692 53.4393H143.771V30.0112H139.672V31.8883C139.672 32.5621 139.125 33.109 138.451 33.109H134.859" fill="#282B2D"/>
<path d="M130.118 31.352V53.4391H135.403V29.4815C135.403 28.8777 134.913 28.3877 134.309 28.3877H130.118V31.352Z" fill="#282B2D"/>
<path d="M143.767 38.7734V50.6942C143.767 51.3134 143.266 51.8143 142.647 51.8143H130.881V53.4398H143.765C144.662 53.4398 145.39 52.7113 145.39 51.8143V38.7734H143.767Z" fill="#282B2D"/>
<path d="M83.2418 25.2926H95.1211C95.6461 25.2926 96.0705 24.8682 96.0705 24.3431V23.1377H92.7408L90.05 24.5159H86.4774L84.666 23.1377H82.2924V24.3431C82.2924 24.8682 82.7168 25.2926 83.2418 25.2926Z" fill="#282B2D"/>
<path d="M98.0109 28.4367H92.5876C92.5876 27.7213 92.0079 27.1416 91.2925 27.1416H88.8335H86.0858C85.3704 27.1416 84.7906 27.7213 84.7906 28.4367H81.5047C80.7893 28.4367 80.2096 29.0165 80.2096 29.7318V53.5516H83.3599V44.5754H94.0162V53.3262H99.3061V29.7318C99.3061 29.0165 98.7263 28.4367 98.0109 28.4367ZM93.9899 41.5345C93.9899 42.239 93.4189 42.8078 92.7167 42.8078H89.9142C89.2251 42.8078 88.6673 43.3656 88.6673 44.0548C88.6673 43.3656 88.1094 42.8078 87.4203 42.8078H84.6178C83.979 42.8078 83.4496 42.3352 83.3599 41.7227V31.2151C83.3599 30.4997 83.9396 29.92 84.655 29.92H87.5362C88.2516 29.92 88.8313 29.3402 88.8313 28.6249C88.8313 29.3402 89.4111 29.92 90.1265 29.92H92.7189C93.4343 29.92 94.014 30.4997 94.014 31.2151V41.5367H93.9899V41.5345Z" fill="#282B2D"/>
<path d="M157.923 35.7557C157.923 35.7557 159.728 26.7511 167.985 24.874C167.985 24.874 164.979 33.7692 157.923 35.7557Z" fill="#AF9574"/>
<path d="M157.923 37.0273C157.923 37.0273 162.113 34.1067 167.366 37.0645C167.366 37.0645 162.771 39.9457 157.923 37.0273Z" fill="#AF9574"/>
<path d="M156.302 34.066V29.4806C156.302 28.8768 155.812 28.3867 155.208 28.3867H151.017V31.3511V34.066H150.286V34.8973C150.286 35.2999 150.612 35.628 151.017 35.628H156.302H156.337C156.74 35.628 157.068 35.3021 157.068 34.8973V34.7967C157.068 34.3942 156.742 34.066 156.337 34.066H156.302Z" fill="#282B2D"/>
<path d="M157.068 37.7678C157.068 37.3653 156.742 37.0371 156.337 37.0371H156.302H151.017C150.614 37.0371 150.286 37.3631 150.286 37.7678V37.8684C150.286 38.271 150.612 38.5991 151.017 38.5991V53.4405H154.972C155.707 53.4405 156.305 52.8455 156.305 52.1082V38.5991H157.07V37.7678H157.068Z" fill="#282B2D"/>
</svg>
