<svg width="33" height="32" viewBox="0 0 33 32" fill="none" xmlns="http://www.w3.org/2000/svg">
<g clip-path="url(#clip0_2075_660)">
<path d="M0.351807 0H32.2724V17.2745L30.6926 19.7495L32.2724 21.952V32H0.351807V15.7155L1.33933 14.577L0.351807 13.4879V0Z" fill="#016FD0"/>
<path d="M6.54834 22.2974V17.2734H11.8546L12.4239 18.0174L13.012 17.2734H32.2725V21.951C32.2725 21.951 31.7688 22.2923 31.1864 22.2974H20.5211L19.8792 21.5054V22.2974H17.7759V20.9456C17.7759 20.9456 17.4885 21.1342 16.8674 21.1342H16.1515V22.2974H12.9669L12.3983 21.5375L11.821 22.2974H6.54834Z" fill="white"/>
<path d="M0.351807 13.4881L1.54829 10.6914H3.61773L4.29677 12.2578V10.6914H6.86925L7.27341 11.8235L7.66541 10.6914H19.2129V11.2605C19.2129 11.2605 19.82 10.6914 20.8177 10.6914L24.5643 10.7046L25.2315 12.2505V10.6914H27.3841L27.9768 11.5794V10.6914H30.1492V15.7154H27.9768L27.4091 14.8245V15.7154H24.2462L23.9281 14.9233H23.0779L22.7649 15.7154H20.62C19.7614 15.7154 19.2129 15.1578 19.2129 15.1578V15.7154H15.9787L15.3368 14.9233V15.7154H3.31117L2.99341 14.9233H2.14573L1.83021 15.7154H0.351807V13.4881Z" fill="white"/>
<path d="M1.97199 11.3105L0.35791 15.0722H1.40879L1.70671 14.319H3.43791L3.73423 15.0722H4.80815L3.19567 11.3105H1.97199ZM2.56911 12.186L3.09679 13.5022H2.03983L2.56911 12.186Z" fill="#016FD0"/>
<path d="M4.91882 15.0725V11.3109L6.41194 11.3163L7.28042 13.7415L8.1281 11.3105H9.60938V15.0722H8.67114V12.3002L7.67658 15.0722H6.85418L5.85706 12.3002V15.0722H4.91882V15.0725Z" fill="#016FD0"/>
<path d="M10.2513 15.0722V11.3105H13.3125V12.152H11.1992V12.7955H13.2632V13.5876H11.1992V14.2558H13.3125V15.0725L10.2513 15.0722Z" fill="#016FD0"/>
<path d="M13.8558 11.3105V15.0722H14.7941V13.7358H15.189L16.3138 15.0722H17.4603L16.2261 13.6864C16.7326 13.6434 17.2552 13.2077 17.2552 12.5309C17.2552 11.7391 16.6354 11.3105 15.9438 11.3105H13.8558ZM14.7938 12.152H15.8661C16.1234 12.152 16.3106 12.3538 16.3106 12.5479C16.3106 12.7978 16.068 12.9437 15.8802 12.9437H14.7941L14.7938 12.152Z" fill="#016FD0"/>
<path d="M18.5957 15.0722H17.6379V11.3105H18.5957V15.0722Z" fill="#016FD0"/>
<path d="M20.867 15.0722H20.6603C19.66 15.0722 19.0526 14.2821 19.0526 13.2068C19.0526 12.1048 19.6533 11.3105 20.9166 11.3105H21.9534V12.2014H20.8785C20.3656 12.2014 20.003 12.6027 20.003 13.2161C20.003 13.9446 20.4177 14.2506 21.0152 14.2506H21.2619L20.867 15.0722Z" fill="#016FD0"/>
<path d="M22.9083 11.3105L21.2942 15.0722H22.3451L22.643 14.319H24.3742L24.6705 15.0722H25.7444L24.1319 11.3105H22.9083ZM23.5054 12.186L24.0331 13.5022H22.9761L23.5054 12.186Z" fill="#016FD0"/>
<path d="M25.8535 15.0722V11.3105H27.0462L28.569 13.6742V11.3105H29.5073V15.0722H28.353L26.7914 12.647V15.0722H25.8535Z" fill="#016FD0"/>
<path d="M7.19019 21.6542V17.8926H10.2513V18.734H8.13803V19.3775H10.202V20.1696H8.13803V20.8378H10.2513V21.6545L7.19019 21.6542Z" fill="#016FD0"/>
<path d="M22.1902 21.6542V17.8926H25.2513V18.734H23.138V19.3775H25.1921V20.1696H23.138V20.8378H25.2513V21.6545L22.1902 21.6542Z" fill="#016FD0"/>
<path d="M10.37 21.6545L11.8606 19.7968L10.3345 17.8926H11.5162L12.425 19.0696L13.337 17.8926H14.4727L12.9668 19.7734L14.4599 21.6542H13.2782L12.3956 20.4958L11.5345 21.6542L10.37 21.6545Z" fill="#016FD0"/>
<path d="M14.5717 17.8945V21.6562H15.5345V20.4683H16.5221C17.3576 20.4683 17.9909 20.024 17.9909 19.1597C17.9909 18.4437 17.4942 17.8945 16.644 17.8945H14.5717ZM15.5345 18.7453H16.5745C16.8446 18.7453 17.0376 18.9111 17.0376 19.1784C17.0376 19.4295 16.8456 19.6114 16.5717 19.6114H15.5349V18.7453H15.5345Z" fill="#016FD0"/>
<path d="M18.3982 17.8926V21.6542H19.3364V20.3178H19.7313L20.8561 21.6542H22.0027L20.7684 20.2684C21.275 20.2254 21.7976 19.7898 21.7976 19.1129C21.7976 18.3212 21.1777 17.8926 20.4862 17.8926H18.3982ZM19.3361 18.734H20.4084C20.6657 18.734 20.8529 18.9358 20.8529 19.1299C20.8529 19.3798 20.6104 19.5257 20.4225 19.5257H19.3364V18.734H19.3361Z" fill="#016FD0"/>
<path d="M25.6859 21.6542V20.8375H27.5634C27.8411 20.8375 27.9615 20.687 27.9615 20.5218C27.9615 20.3637 27.8415 20.2039 27.5634 20.2039H26.7151C25.9775 20.2039 25.5669 19.7535 25.5669 19.0773C25.5669 18.4742 25.9429 17.8926 27.0389 17.8926H28.8658L28.4709 18.7388H26.8911C26.589 18.7388 26.4962 18.8976 26.4962 19.0494C26.4962 19.2053 26.6111 19.3772 26.8418 19.3772H27.7304C28.5525 19.3772 28.9093 19.8446 28.9093 20.457C28.9093 21.1153 28.5119 21.6542 27.6856 21.6542H25.6859Z" fill="#016FD0"/>
<path d="M29.1288 21.6542V20.8375H31.0062C31.284 20.8375 31.4043 20.687 31.4043 20.5218C31.4043 20.3637 31.2843 20.2039 31.0062 20.2039H30.1579C29.4203 20.2039 29.0098 19.7535 29.0098 19.0773C29.0098 18.4742 29.3858 17.8926 30.4818 17.8926H32.3086L31.9138 18.7388H30.3339C30.0318 18.7388 29.939 18.8976 29.939 19.0494C29.939 19.2053 30.0539 19.3772 30.2846 19.3772H31.1733C31.9954 19.3772 32.3522 19.8446 32.3522 20.457C32.3522 21.1153 31.9547 21.6542 31.1285 21.6542H29.1288Z" fill="#016FD0"/>
</g>
<defs>
<clipPath id="clip0_2075_660">
<rect width="32" height="32" fill="white" transform="translate(0.351807)"/>
</clipPath>
</defs>
</svg>
