<svg width="19" height="20" viewBox="0 0 19 20" fill="none" xmlns="http://www.w3.org/2000/svg">
<path d="M14.8437 10.3398C14.884 10.2432 14.9048 10.1396 14.9048 10.035C14.9048 9.93034 14.884 9.82675 14.8437 9.73018C14.7997 9.63691 14.7409 9.55136 14.6696 9.47685L9.96706 4.77435C9.81562 4.64465 9.62081 4.57688 9.42156 4.58457C9.22232 4.59227 9.03332 4.67487 8.89233 4.81586C8.75133 4.95685 8.66874 5.14585 8.66104 5.3451C8.65335 5.54434 8.72112 5.73915 8.85081 5.8906L12.1996 9.20768H4.74998C4.54002 9.20768 4.33865 9.29109 4.19019 9.43955C4.04172 9.58802 3.95831 9.78938 3.95831 9.99935C3.95831 10.2093 4.04172 10.4107 4.19019 10.5591C4.33865 10.7076 4.54002 10.791 4.74998 10.791H12.2391L8.8904 14.1398C8.74132 14.2878 8.65716 14.489 8.65641 14.699C8.65567 14.9091 8.73841 15.1109 8.88644 15.26C9.03446 15.409 9.23564 15.4932 9.44572 15.494C9.6558 15.4947 9.85757 15.412 10.0066 15.2639L14.7091 10.5614C14.7638 10.494 14.8091 10.4194 14.8437 10.3398Z" fill="#222222"/>
</svg>
