<svg width="62" height="62" viewBox="0 0 62 62" fill="none" xmlns="http://www.w3.org/2000/svg">
<g clip-path="url(#clip0_35_2030)">
<path d="M41.7656 48.6084C39.9148 48.6084 38.1157 48.6084 36.3149 48.6084C32.689 48.6084 29.0632 48.6157 25.4374 48.5992C25.0098 48.5974 24.8062 48.7204 24.6137 49.1134C23.1627 52.0702 19.8256 53.6403 16.9049 52.7496C14.8375 52.1179 13.5937 50.6763 12.9496 48.6084C10.9285 48.6084 8.89997 48.5992 6.86958 48.6121C5.8442 48.6194 5.06499 48.2246 4.63004 47.299C3.97484 45.9033 4.96875 44.2982 6.53272 44.2174C7.29342 44.1788 8.05598 44.2192 8.81853 44.2045C10.1123 44.1788 11.084 43.222 11.0784 41.9971C11.0729 40.774 10.0993 39.8246 8.80002 39.8099C7.39152 39.7952 5.98302 39.8135 4.57451 39.8044C3.21784 39.7952 2.22578 38.8714 2.21652 37.6245C2.20542 36.3426 3.19748 35.4097 4.60228 35.4079C10.3992 35.4023 16.196 35.4097 21.9929 35.4023C23.7235 35.4005 24.8599 33.8634 24.2158 32.385C23.8105 31.4521 23.059 31.0003 22.0244 31.0022C19.1371 31.0077 16.2516 31.0187 13.3642 30.9985C11.667 30.9875 10.5879 29.353 11.2931 27.8838C11.7244 26.9858 12.4832 26.5983 13.479 26.6001C17.7286 26.6075 21.9781 26.6038 26.2277 26.6038C27.0124 26.6038 27.7972 26.6075 28.5838 26.6038C30.0405 26.5965 31.0492 25.6764 31.0344 24.3762C31.0196 23.1053 30.0201 22.2055 28.5986 22.2055C21.4395 22.2018 14.2804 22.2055 7.12129 22.2018C6.79924 22.2018 6.46794 22.211 6.157 22.1412C5.04093 21.8896 4.30429 20.8318 4.44495 19.7299C4.58562 18.6225 5.5092 17.8108 6.6993 17.809C11.5023 17.7998 16.3071 17.8053 21.1101 17.8053C21.4562 17.8053 21.8023 17.8126 22.1484 17.8034C23.4329 17.7649 24.4009 16.7952 24.3824 15.5703C24.3639 14.3748 23.4033 13.418 22.1465 13.4124C18.4985 13.3978 14.8486 13.4143 11.2006 13.4033C9.54406 13.3978 8.45761 11.9286 9.00732 10.4612C9.33677 9.5834 10.0012 9.11143 10.9359 9.0141C11.1414 8.99206 11.3505 9.00675 11.5596 9.00675C21.397 9.00675 31.2361 9.00675 41.0734 9.00675C43.1612 9.00675 43.9996 9.96171 43.7553 12.0369C43.5313 13.9248 43.3222 15.8127 43.0945 17.809C43.3703 17.809 43.6109 17.809 43.8534 17.809C47.433 17.809 51.0125 17.8255 54.5921 17.7998C55.8303 17.7906 56.6262 18.303 57.1203 19.4306C58.6473 22.9143 60.2261 26.3743 61.7401 29.8617C61.9566 30.3594 62.0399 30.9764 61.9844 31.5164C61.4865 36.3243 60.9257 41.1248 60.4186 45.9308C60.2057 47.9491 59.5135 48.6139 57.4461 48.6139C56.3837 48.6139 55.3213 48.6341 54.2589 48.6029C53.8295 48.59 53.6296 48.7278 53.4353 49.1189C52.4377 51.1354 50.8126 52.4154 48.5953 52.8635C45.6321 53.4622 42.9946 51.9471 41.9544 49.1171C41.897 48.961 41.8415 48.8123 41.7656 48.6084ZM57.5016 33.1986C57.5016 32.4383 57.7145 31.6559 57.4664 31.0664C56.2689 28.2217 54.9511 25.4266 53.6555 22.6223C53.5722 22.4442 53.3076 22.2367 53.1243 22.233C51.5104 22.2055 49.8964 22.1889 48.2825 22.233C47.1053 22.2642 46.2706 23.0282 46.1318 24.1705C45.8597 26.3945 45.6062 28.6221 45.3859 30.8534C45.2674 32.0655 46.1892 33.1674 47.4089 33.1839C50.7034 33.2261 53.9998 33.1986 57.5016 33.1986ZM17.1696 46.9501C17.177 47.9656 17.8489 48.6929 18.6873 48.5937C20.1754 48.4174 21.3192 46.7077 20.9028 45.2899C20.64 44.3955 19.9218 44.0319 19.0297 44.3404C17.8914 44.7316 17.1622 45.7545 17.1696 46.9501ZM45.993 46.9611C46.0041 47.9748 46.6815 48.6984 47.5236 48.5919C48.9895 48.4064 50.1093 46.7646 49.741 45.3432C49.4985 44.4102 48.76 44.0209 47.8438 44.3404C46.7056 44.739 45.98 45.7674 45.993 46.9611Z" fill="#AF9574"/>
<path d="M3.33812 31.0001C2.92353 31.0001 2.50524 31.0222 2.09249 30.9965C0.900543 30.9248 -0.0193328 29.9368 -0.000824195 28.767C0.0176844 27.621 0.922753 26.6661 2.09435 26.6146C2.92353 26.5779 3.75827 26.5742 4.5856 26.6165C5.74424 26.6752 6.6456 27.6614 6.6456 28.8037C6.6456 29.946 5.74609 30.912 4.58375 30.9928C4.17101 31.024 3.75456 30.9983 3.33812 31.0001Z" fill="#AF9574"/>
</g>
<defs>
<clipPath id="clip0_35_2030">
<rect width="62.0022" height="62" fill="white" transform="translate(-0.00109863)"/>
</clipPath>
</defs>
</svg>
