<svg width="25" height="23" viewBox="0 0 25 23" fill="none" xmlns="http://www.w3.org/2000/svg">
<path fill-rule="evenodd" clip-rule="evenodd" d="M0.117676 1C0.117676 0.447715 0.565391 0 1.11768 0H5.11768C5.5943 0 6.00469 0.336385 6.09823 0.803743L6.93811 5H23.1177C23.4157 5 23.6982 5.13293 23.8882 5.36256C24.0781 5.59218 24.1558 5.89458 24.1 6.18733L22.4985 14.5848C22.3614 15.2754 21.9857 15.8958 21.4372 16.3373C20.8915 16.7766 20.2093 17.011 19.509 17H9.80632C9.10605 17.011 8.42388 16.7766 7.87815 16.3373C7.32992 15.8959 6.95431 15.2759 6.817 14.5857L5.14647 6.2392C5.13969 6.21159 5.13406 6.18353 5.12963 6.15508L4.29799 2H1.11768C0.565391 2 0.117676 1.55228 0.117676 1ZM7.33841 7L8.77852 14.1952C8.82424 14.4254 8.94947 14.6322 9.13229 14.7793C9.31511 14.9265 9.54386 15.0047 9.77852 15.0002L9.79768 15H19.5177L19.5368 15.0002C19.7715 15.0047 20.0002 14.9265 20.1831 14.7793C20.365 14.6328 20.4899 14.4273 20.5362 14.1984L21.909 7H7.33841ZM7.11768 21C7.11768 19.8954 8.01311 19 9.11768 19C10.2222 19 11.1177 19.8954 11.1177 21C11.1177 22.1046 10.2222 23 9.11768 23C8.01311 23 7.11768 22.1046 7.11768 21ZM18.1177 21C18.1177 19.8954 19.0131 19 20.1177 19C21.2222 19 22.1177 19.8954 22.1177 21C22.1177 22.1046 21.2222 23 20.1177 23C19.0131 23 18.1177 22.1046 18.1177 21Z" fill="#363636"/>
</svg>
