<svg width="60" height="60" viewBox="0 0 60 60" fill="none" xmlns="http://www.w3.org/2000/svg">
<path d="M6.99963 25.1523C6.99963 24.3434 6.99963 23.5358 6.99963 22.727C7.08601 22.169 7.16039 21.6097 7.25876 21.0541C8.86631 11.9566 17.5003 5.77161 26.5854 7.20686C36.1335 8.71531 42.5721 18.0084 40.5734 27.4491C38.2497 38.4271 26.6441 43.6713 17.0432 39.3967C16.0883 38.9719 15.3901 39.0835 14.6043 39.7616C12.6345 41.4608 10.3467 41.8688 7.8538 41.216C7.8538 41.1512 7.8454 41.1188 7.85499 41.0924C7.89218 40.9952 7.93537 40.8992 7.97736 40.8032C9.38457 37.5319 9.53573 34.2042 8.43443 30.8188C8.09253 29.7688 7.71223 28.7284 7.43391 27.6615C7.21917 26.8431 7.13879 25.9899 6.99963 25.1523ZM33.0264 21.5665C31.6815 21.5605 30.5634 22.6634 30.5539 24.0086C30.5443 25.3443 31.6599 26.4699 33.0024 26.4783C34.3448 26.4867 35.4653 25.3767 35.4713 24.0326C35.4773 22.6862 34.3736 21.5737 33.0264 21.5665ZM26.4114 24.0146C26.409 22.6598 25.3113 21.5629 23.9593 21.5665C22.6061 21.5689 21.5132 22.6682 21.5156 24.0254C21.518 25.3779 22.6229 26.4819 23.9701 26.4771C25.3221 26.4723 26.4138 25.3707 26.4114 24.0146ZM12.4689 24.0002C12.4605 25.3575 13.5414 26.4615 14.8946 26.4783C16.2395 26.4951 17.3515 25.3983 17.3647 24.0422C17.3779 22.6874 16.2898 21.5797 14.9366 21.5677C13.5834 21.5545 12.4773 22.6466 12.4689 24.0002Z" fill="#AF9574"/>
<path d="M49.307 53.0015C48.6784 52.8251 48.0125 52.7279 47.4319 52.4519C46.6977 52.1027 45.9767 51.6767 45.3517 51.1595C44.6403 50.5702 43.9841 50.4466 43.1359 50.833C35.3681 54.3672 26.2422 51.6263 21.6835 44.4092C21.5803 44.246 21.4868 44.078 21.3512 43.8488C28.0609 44.4932 33.8721 42.6284 38.516 37.7454C43.1671 32.854 44.7279 26.9486 43.7309 20.2656C44.951 20.8548 46.0235 21.5557 47.0036 22.3909C50.3339 25.2266 52.3289 28.8087 52.876 33.1565C53.2383 36.0306 52.7824 38.829 51.8623 41.5507C51.2444 43.3808 50.8378 45.2313 50.9061 47.1765C50.9673 48.9334 51.3524 50.6098 52.0434 52.2215C52.101 52.3559 52.155 52.4927 52.2342 52.6847C51.7735 52.7963 51.3488 52.8995 50.9241 53.0015C50.3843 53.0015 49.8456 53.0015 49.307 53.0015Z" fill="#AF9574"/>
</svg>
