<svg width="24" height="24" viewBox="0 0 24 24" fill="none" xmlns="http://www.w3.org/2000/svg">
<path d="M18.7071 10.7071C19.0976 10.3166 19.0976 9.68342 18.7071 9.29289C18.3166 8.90237 17.6834 8.90237 17.2929 9.29289L18.7071 10.7071ZM12.7071 15.2929L13.4142 16V16L12.7071 15.2929ZM11.2929 15.2929L12 14.5858H12L11.2929 15.2929ZM6.70711 9.29289C6.31658 8.90237 5.68342 8.90237 5.29289 9.29289C4.90237 9.68342 4.90237 10.3166 5.29289 10.7071L6.70711 9.29289ZM17.2929 9.29289L12 14.5858L13.4142 16L18.7071 10.7071L17.2929 9.29289ZM12 14.5858L6.70711 9.29289L5.29289 10.7071L10.5858 16L12 14.5858ZM12 14.5858H12L10.5858 16C11.3668 16.781 12.6332 16.781 13.4142 16L12 14.5858Z" fill="black"/>
</svg>
