<svg width="16" height="16" viewBox="0 0 16 16" fill="none" xmlns="http://www.w3.org/2000/svg">
<path d="M14.6667 5.27301C14.6509 4.22257 14.2225 3.22051 13.4741 2.48329C12.7257 1.74607 11.7172 1.33289 10.6667 1.33301H5.25334C4.2064 1.35395 3.20942 1.78461 2.47649 2.53249C1.74356 3.28038 1.33313 4.28586 1.33334 5.33301V10.7197C1.34737 11.7713 1.77498 12.775 2.52361 13.5137C3.27224 14.2523 4.28165 14.6664 5.33334 14.6663H6.49334V9.99967H5.26001C5.1716 9.99967 5.08682 9.96456 5.02431 9.90204C4.9618 9.83953 4.92668 9.75475 4.92668 9.66634V8.34634C4.92668 8.25794 4.9618 8.17315 5.02431 8.11064C5.08682 8.04813 5.1716 8.01301 5.26001 8.01301H6.49334V6.01301C6.4951 5.39117 6.74291 4.79531 7.18261 4.35561C7.62231 3.9159 8.21818 3.6681 8.84001 3.66634H10.74C10.8284 3.66634 10.9132 3.70146 10.9757 3.76397C11.0382 3.82648 11.0733 3.91127 11.0733 3.99967V5.33301C11.0733 5.42141 11.0382 5.5062 10.9757 5.56871C10.9132 5.63122 10.8284 5.66634 10.74 5.66634H9.62668C9.41804 5.66634 9.21795 5.74922 9.07042 5.89675C8.92289 6.04428 8.84001 6.24437 8.84001 6.45301V7.99967H10.6667C10.7218 7.99884 10.7763 8.01172 10.8253 8.03713C10.8743 8.06255 10.9161 8.09972 10.9472 8.14532C10.9782 8.19091 10.9975 8.24349 11.0032 8.29836C11.009 8.35322 11.001 8.40865 10.98 8.45967L10.4667 9.74634C10.4423 9.80952 10.3993 9.86377 10.3433 9.90188C10.2873 9.93999 10.2211 9.96015 10.1533 9.95967H8.82001V14.6263H10.7267C11.7794 14.6141 12.7849 14.1872 13.525 13.4384C14.2651 12.6896 14.6801 11.6792 14.68 10.6263L14.6667 5.27301Z" fill="black"/>
</svg>
