<svg width="25" height="24" viewBox="0 0 25 24" fill="none" xmlns="http://www.w3.org/2000/svg">
<g clip-path="url(#clip0_2075_635)">
<path fill-rule="evenodd" clip-rule="evenodd" d="M13.4674 24H1.97281C1.24103 24 0.648193 23.4068 0.648193 22.6753V1.32461C0.648193 0.592927 1.24112 0 1.97281 0H23.3237C24.0552 0 24.6482 0.592927 24.6482 1.32461V22.6753C24.6482 23.4069 24.0551 24 23.3237 24H17.2078V14.7059H20.3275L20.7946 11.0838H17.2078V8.77132C17.2078 7.72265 17.4991 7.008 19.0028 7.008L20.9209 7.00716V3.76755C20.5891 3.72341 19.4506 3.62479 18.126 3.62479C15.3606 3.62479 13.4674 5.31276 13.4674 8.41261V11.0838H10.3398V14.7059H13.4674V24Z" fill="#1877F2"/>
</g>
<defs>
<clipPath id="clip0_2075_635">
<rect width="24" height="24" fill="white" transform="translate(0.648193)"/>
</clipPath>
</defs>
</svg>
