<svg width="12" height="12" viewBox="0 0 12 12" fill="none" xmlns="http://www.w3.org/2000/svg">
<path d="M0 6.34837C0 6.11437 0 5.88037 0 5.64637C0.006 5.60437 0.018 5.56237 0.024 5.52037C0.054 5.30437 0.072 5.08237 0.114 4.87237C0.36 3.58837 0.954 2.49037 1.92 1.60837C3.402 0.252375 5.154 -0.245625 7.128 0.102375C8.43 0.336375 9.54 0.954375 10.422 1.93837C11.67 3.32437 12.186 4.95637 11.946 6.80437C11.76 8.23237 11.118 9.44437 10.056 10.4224C9.198 11.2144 8.184 11.7064 7.032 11.9044C6.81 11.9404 6.582 11.9644 6.36 11.9944C6.126 11.9944 5.892 11.9944 5.658 11.9944C5.622 11.9884 5.58 11.9764 5.544 11.9764C5.322 11.9464 5.1 11.9284 4.884 11.8864C3.57 11.6344 2.466 11.0104 1.566 10.0264C0.786 9.16837 0.294 8.16637 0.102 7.02037C0.054 6.79837 0.03 6.57037 0 6.34837ZM2.838 4.41637C2.832 4.67437 2.916 4.98637 3.078 5.35837C3.414 6.12637 3.888 6.79237 4.476 7.38037C5.244 8.15437 6.12 8.75437 7.176 9.06637C7.578 9.18637 7.968 9.15037 8.346 8.97037C8.622 8.83837 8.826 8.61037 9.042 8.40037C9.198 8.24437 9.198 8.11837 9.042 7.95637C8.7 7.60837 8.352 7.26637 8.01 6.91837C7.848 6.75637 7.716 6.75637 7.56 6.91837C7.368 7.11037 7.182 7.30237 6.99 7.49437C6.768 7.71637 6.492 7.74037 6.24 7.55437C5.562 7.07437 4.98 6.49837 4.482 5.83237C4.272 5.55037 4.29 5.28637 4.536 5.04037C4.734 4.84237 4.938 4.64437 5.13 4.44037C5.268 4.30237 5.268 4.17037 5.13 4.03237C4.77 3.67237 4.416 3.31237 4.05 2.95837C3.918 2.82637 3.786 2.83237 3.648 2.95837C3.54 3.06637 3.426 3.18037 3.318 3.28837C3.012 3.60037 2.85 3.97837 2.838 4.41637Z" fill="black"/>
</svg>
