<svg width="25" height="24" viewBox="0 0 25 24" fill="none" xmlns="http://www.w3.org/2000/svg">
<g clip-path="url(#clip0_2075_639)">
<path d="M25.0125 7.09169C24.9533 5.81538 24.7495 4.94038 24.4536 4.17722C24.1446 3.38775 23.7369 2.71669 23.0728 2.05222C22.4087 1.38775 21.738 0.973273 20.949 0.670641C20.1863 0.374589 19.3118 0.170641 18.0362 0.111431C16.754 0.0522204 16.3464 0.0390625 13.0916 0.0390625C9.83033 0.0390625 9.42267 0.0522204 8.14708 0.111431C6.87149 0.170641 5.99698 0.374589 5.23426 0.670641C4.44523 0.979852 3.77456 1.38775 3.11046 2.05222C2.44637 2.71669 2.03213 3.38775 1.72967 4.17722C1.43379 4.94038 1.22995 5.81538 1.17078 7.09169C1.1116 8.37459 1.09845 8.78248 1.09845 12.0391C1.09845 15.3022 1.1116 15.7101 1.17078 16.9864C1.22995 18.2627 1.43379 19.1377 1.72967 19.9009C2.0387 20.6904 2.44637 21.3614 3.11046 22.0259C3.77456 22.6904 4.44523 23.1049 5.23426 23.4075C5.99698 23.7035 6.87149 23.9075 8.14708 23.9667C9.42924 24.0259 9.83691 24.0391 13.0916 24.0391C16.3529 24.0391 16.7606 24.0259 18.0362 23.9667C19.3118 23.9075 20.1863 23.7035 20.949 23.4075C21.738 23.0983 22.4087 22.6904 23.0728 22.0259C23.7369 21.3614 24.1511 20.6904 24.4536 19.9009C24.7495 19.1377 24.9533 18.2627 25.0125 16.9864C25.0717 15.7035 25.0848 15.2956 25.0848 12.0391C25.0848 8.78248 25.0717 8.36801 25.0125 7.09169ZM22.8558 16.8877C22.8032 18.0588 22.606 18.697 22.4416 19.118C22.2246 19.6772 21.9616 20.0785 21.5408 20.4996C21.12 20.9206 20.7189 21.1772 20.16 21.4009C19.7392 21.5654 19.1014 21.7627 17.931 21.8154C16.6685 21.8746 16.2872 21.8877 13.0851 21.8877C9.88293 21.8877 9.50157 21.8746 8.23913 21.8154C7.06874 21.7627 6.43095 21.5654 6.01013 21.4009C5.45124 21.1838 5.05015 20.9206 4.62934 20.4996C4.20852 20.0785 3.95209 19.6772 3.72853 19.118C3.56415 18.697 3.3669 18.0588 3.3143 16.8877C3.25512 15.6246 3.24197 15.243 3.24197 12.0391C3.24197 8.83512 3.25512 8.45354 3.3143 7.19038C3.3669 6.01933 3.56415 5.38117 3.72853 4.96012C3.94552 4.4009 4.20852 3.99959 4.62934 3.57854C5.05015 3.15748 5.45124 2.9009 6.01013 2.67722C6.43095 2.51275 7.06874 2.31538 8.23913 2.26275C9.50157 2.20354 9.88293 2.19038 13.0851 2.19038C16.2872 2.19038 16.6685 2.20354 17.931 2.26275C19.1014 2.31538 19.7392 2.51275 20.16 2.67722C20.7189 2.89433 21.12 3.15748 21.5408 3.57854C21.9616 3.99959 22.218 4.4009 22.4416 4.96012C22.606 5.38117 22.8032 6.01933 22.8558 7.19038C22.915 8.45354 22.9282 8.83512 22.9282 12.0391C22.9282 15.243 22.9084 15.6246 22.8558 16.8877Z" fill="url(#paint0_linear_2075_639)"/>
<path d="M13.0847 5.875C9.67872 5.875 6.92371 8.63816 6.92371 12.0395C6.92371 15.4474 9.68529 18.2039 13.0847 18.2039C16.4841 18.2039 19.2457 15.4408 19.2457 12.0395C19.2457 8.63158 16.4906 5.875 13.0847 5.875ZM13.0847 16.0395C10.8754 16.0395 9.08695 14.25 9.08695 12.0395C9.08695 9.82895 10.8754 8.03947 13.0847 8.03947C15.2939 8.03947 17.0824 9.82895 17.0824 12.0395C17.0824 14.25 15.2939 16.0395 13.0847 16.0395Z" fill="url(#paint1_linear_2075_639)"/>
<path d="M19.4892 7.07286C20.2845 7.07286 20.9291 6.42782 20.9291 5.63213C20.9291 4.83644 20.2845 4.19141 19.4892 4.19141C18.694 4.19141 18.0493 4.83644 18.0493 5.63213C18.0493 6.42782 18.694 7.07286 19.4892 7.07286Z" fill="#BC30A0"/>
<path d="M1.08496 12.0391C1.08496 15.3022 1.09811 15.7101 1.15729 16.9864C1.21647 18.2627 1.4203 19.1377 1.71618 19.9009C2.02522 20.6904 2.43288 21.3614 3.09698 22.0259C3.76107 22.6904 4.43174 23.1049 5.22077 23.4075C5.98349 23.7035 6.858 23.9075 8.13359 23.9667C9.41575 24.0259 9.82342 24.0391 13.0781 24.0391C16.3395 24.0391 16.7471 24.0259 18.0227 23.9667C19.2983 23.9075 20.1728 23.7035 20.9355 23.4075C21.7245 23.0983 22.3952 22.6904 23.0593 22.0259C23.7234 21.3614 24.1377 20.6904 24.4401 19.9009C24.736 19.1377 24.9398 18.2627 24.999 16.9864C25.0582 15.7035 25.0713 15.2956 25.0713 12.0391C25.0713 8.7759 25.0582 8.36801 24.999 7.09169C24.9398 5.81538 24.736 4.94038 24.4401 4.17722C24.1311 3.38775 23.7234 2.71669 23.0593 2.05222C22.3952 1.38775 21.7245 0.973273 20.9355 0.670641C20.1728 0.374589 19.2983 0.170641 18.0227 0.111431C16.7405 0.0522204 16.3329 0.0390625 13.0781 0.0390625C9.81684 0.0390625 9.40918 0.0522204 8.13359 0.111431C6.858 0.170641 5.98349 0.374589 5.22077 0.670641C4.43174 0.979852 3.76107 1.38775 3.09698 2.05222C2.43288 2.71669 2.01864 3.38775 1.71618 4.17722C1.4203 4.94038 1.21647 5.81538 1.15729 7.09169C1.09811 8.36801 1.08496 8.7759 1.08496 12.0391ZM3.24821 12.0391C3.24821 8.83512 3.26136 8.45354 3.32053 7.19038C3.37313 6.01933 3.57039 5.38117 3.73477 4.96012C3.95175 4.4009 4.21476 3.99959 4.63558 3.57854C5.05639 3.15748 5.45748 2.9009 6.01637 2.67722C6.43718 2.51275 7.07498 2.31538 8.24537 2.26275C9.50781 2.20354 9.88917 2.19038 13.0913 2.19038C16.2934 2.19038 16.6748 2.20354 17.9372 2.26275C19.1076 2.31538 19.7454 2.51275 20.1662 2.67722C20.7251 2.89433 21.1262 3.15748 21.547 3.57854C21.9678 3.99959 22.2243 4.4009 22.4478 4.96012C22.6122 5.38117 22.8095 6.01933 22.8621 7.19038C22.9212 8.45354 22.9344 8.83512 22.9344 12.0391C22.9344 15.243 22.9212 15.6246 22.8621 16.8877C22.8095 18.0588 22.6122 18.697 22.4478 19.118C22.2308 19.6772 21.9678 20.0785 21.547 20.4996C21.1262 20.9206 20.7251 21.1772 20.1662 21.4009C19.7454 21.5654 19.1076 21.7627 17.9372 21.8154C16.6748 21.8746 16.2934 21.8877 13.0913 21.8877C9.88917 21.8877 9.50781 21.8746 8.24537 21.8154C7.07498 21.7627 6.43718 21.5654 6.01637 21.4009C5.45748 21.1838 5.05639 20.9206 4.63558 20.4996C4.21476 20.0785 3.95833 19.6772 3.73477 19.118C3.57039 18.697 3.37313 18.0588 3.32053 16.8877C3.26136 15.6246 3.24821 15.243 3.24821 12.0391Z" fill="url(#paint2_linear_2075_639)"/>
</g>
<defs>
<linearGradient id="paint0_linear_2075_639" x1="8.92496" y1="-1.88598" x2="16.7928" y2="24.4196" gradientUnits="userSpaceOnUse">
<stop stop-color="#4367DC"/>
<stop offset="0.04289" stop-color="#4C62D6"/>
<stop offset="0.1142" stop-color="#6654C7"/>
<stop offset="0.2045" stop-color="#8F3DAE"/>
<stop offset="0.2341" stop-color="#9E35A5"/>
<stop offset="0.4512" stop-color="#D42F7F"/>
<stop offset="0.8242" stop-color="#D73578"/>
</linearGradient>
<linearGradient id="paint1_linear_2075_639" x1="16.0244" y1="7.09396" x2="9.71833" y2="17.6906" gradientUnits="userSpaceOnUse">
<stop offset="0.3304" stop-color="#D42F7F"/>
<stop offset="1" stop-color="#F7772E"/>
</linearGradient>
<linearGradient id="paint2_linear_2075_639" x1="16.0407" y1="4.98474" x2="8.30531" y2="23.4239" gradientUnits="userSpaceOnUse">
<stop stop-color="#9E35A5" stop-opacity="0"/>
<stop offset="0.4512" stop-color="#D42F7F" stop-opacity="0.5"/>
<stop offset="0.7524" stop-color="#F7772E"/>
<stop offset="1" stop-color="#FEF780"/>
</linearGradient>
<clipPath id="clip0_2075_639">
<rect width="24" height="24" fill="white" transform="translate(0.648193)"/>
</clipPath>
</defs>
</svg>
