<svg width="16" height="16" viewBox="0 0 16 16" fill="none" xmlns="http://www.w3.org/2000/svg">
<path d="M10.4733 1.33303H5.48C4.93352 1.33214 4.39227 1.43945 3.88746 1.64878C3.38266 1.8581 2.92429 2.1653 2.5388 2.55265C2.1533 2.94 1.84831 3.39984 1.64142 3.90565C1.43452 4.41146 1.32982 4.95322 1.33334 5.4997V10.473C1.32983 11.0208 1.43435 11.5638 1.64092 12.0711C1.84749 12.5784 2.15206 13.04 2.5372 13.4295C2.92234 13.819 3.3805 14.1287 3.88546 14.3409C4.39042 14.5532 4.93226 14.6637 5.48 14.6664H10.4733C11.5849 14.6646 12.6505 14.2222 13.4365 13.4362C14.2225 12.6502 14.6649 11.5846 14.6667 10.473V5.4997C14.6649 4.95077 14.5551 4.40756 14.3434 3.90109C14.1317 3.39462 13.8223 2.9348 13.433 2.54789C13.0436 2.16098 12.5818 1.85455 12.074 1.6461C11.5662 1.43766 11.0223 1.33128 10.4733 1.33303V1.33303ZM10.3867 7.9997C10.3866 8.47814 10.2444 8.94577 9.97803 9.3432C9.71165 9.74063 9.33315 10.0499 8.89062 10.2318C8.44808 10.4136 7.96148 10.4598 7.49263 10.3645C7.02377 10.2692 6.59382 10.0367 6.2574 9.69653C5.92097 9.35634 5.69326 8.92384 5.60317 8.45395C5.51308 7.98407 5.5647 7.49801 5.75145 7.05753C5.93821 6.61704 6.25168 6.242 6.65204 5.98006C7.0524 5.71811 7.52159 5.58108 8 5.58636C8.31518 5.58811 8.62692 5.65192 8.91744 5.77414C9.20795 5.89637 9.47154 6.07462 9.69317 6.29872C9.91479 6.52282 10.0901 6.78838 10.2091 7.08024C10.3281 7.37209 10.3884 7.68452 10.3867 7.9997V7.9997ZM11.9 4.7597C11.7682 4.7597 11.6393 4.7206 11.5296 4.64734C11.42 4.57409 11.3345 4.46997 11.2841 4.34815C11.2336 4.22633 11.2204 4.09229 11.2461 3.96297C11.2719 3.83365 11.3354 3.71486 11.4286 3.62162C11.5218 3.52839 11.6406 3.4649 11.7699 3.43917C11.8993 3.41345 12.0333 3.42665 12.1551 3.47711C12.2769 3.52757 12.3811 3.61302 12.4543 3.72265C12.5276 3.83228 12.5667 3.96117 12.5667 4.09303C12.5632 4.26752 12.4914 4.43368 12.3668 4.55584C12.2421 4.67799 12.0745 4.7464 11.9 4.74636V4.7597Z" fill="black"/>
</svg>
