<svg width="42" height="32" viewBox="0 0 42 32" fill="none" xmlns="http://www.w3.org/2000/svg">
<g clip-path="url(#clip0_2075_680)">
<path d="M41.3514 25.5493C41.3514 29.1049 38.4945 32.0001 34.9859 32.0001H0.35144V6.45082C0.35144 2.89525 3.20841 0 6.71697 0H41.3514V25.5493Z" fill="white"/>
<path d="M30.0741 18.9967H32.7055C32.7807 18.9967 32.9561 18.9713 33.0313 18.9713C33.5325 18.8697 33.9586 18.4126 33.9586 17.7776C33.9586 17.1681 33.5325 16.711 33.0313 16.584C32.9561 16.5586 32.8058 16.5586 32.7055 16.5586H30.0741V18.9967Z" fill="url(#paint0_linear_2075_680)"/>
<path d="M32.4048 2.1582C29.8987 2.1582 27.8437 4.21535 27.8437 6.78045V11.5805H34.2844C34.4347 11.5805 34.6102 11.5805 34.7355 11.6059C36.189 11.6821 37.2666 12.444 37.2666 13.7646C37.2666 14.8059 36.5399 15.6948 35.1866 15.8725V15.9233C36.6652 16.0249 37.7929 16.863 37.7929 18.1583C37.7929 19.5551 36.5399 20.4694 34.8858 20.4694H27.8186V29.8663H34.5099C37.016 29.8663 39.0711 27.8091 39.0711 25.244V2.1582H32.4048Z" fill="url(#paint1_linear_2075_680)"/>
<path d="M33.6328 14.0686C33.6328 13.4591 33.2067 13.0528 32.7055 12.9766C32.6554 12.9766 32.5301 12.9512 32.4549 12.9512H30.0741V15.1861H32.4549C32.5301 15.1861 32.6805 15.1861 32.7055 15.1607C33.2067 15.0845 33.6328 14.6782 33.6328 14.0686Z" fill="url(#paint2_linear_2075_680)"/>
<path d="M7.19324 2.1582C4.68713 2.1582 2.63212 4.21535 2.63212 6.78045V18.1837C3.91023 18.8186 5.23847 19.2249 6.56671 19.2249C8.14556 19.2249 8.99764 18.2599 8.99764 16.9392V11.5551H12.9072V16.9138C12.9072 18.9964 11.6291 20.698 7.29349 20.698C4.66207 20.698 2.60706 20.1138 2.60706 20.1138V29.8409H9.29838C11.8045 29.8409 13.8595 27.7837 13.8595 25.2186V2.1582H7.19324Z" fill="url(#paint3_linear_2075_680)"/>
<path d="M19.799 2.1582C17.2929 2.1582 15.2379 4.21535 15.2379 6.78045V12.8249C16.3907 11.8344 18.3956 11.1995 21.6285 11.3519C23.3577 11.4281 25.2122 11.9106 25.2122 11.9106V13.8662C24.285 13.3836 23.1823 12.9519 21.7538 12.8503C19.2978 12.6725 17.8192 13.8916 17.8192 16.0249C17.8192 18.1837 19.2978 19.4027 21.7538 19.1995C23.1823 19.098 24.285 18.6408 25.2122 18.1837V20.1392C25.2122 20.1392 23.3828 20.6218 21.6285 20.698C18.3956 20.8503 16.3907 20.2154 15.2379 19.2249V29.8917H21.9292C24.4353 29.8917 26.4904 27.8345 26.4904 25.2694V2.1582H19.799Z" fill="url(#paint4_linear_2075_680)"/>
</g>
<defs>
<linearGradient id="paint0_linear_2075_680" x1="27.8396" y1="17.7781" x2="48.3531" y2="17.7781" gradientUnits="userSpaceOnUse">
<stop stop-color="#007940"/>
<stop offset="0.2285" stop-color="#00873F"/>
<stop offset="0.7433" stop-color="#40A737"/>
<stop offset="1" stop-color="#5CB531"/>
</linearGradient>
<linearGradient id="paint1_linear_2075_680" x1="27.8393" y1="16.0127" x2="48.3358" y2="16.0127" gradientUnits="userSpaceOnUse">
<stop stop-color="#007940"/>
<stop offset="0.2285" stop-color="#00873F"/>
<stop offset="0.7433" stop-color="#40A737"/>
<stop offset="1" stop-color="#5CB531"/>
</linearGradient>
<linearGradient id="paint2_linear_2075_680" x1="27.8394" y1="14.0691" x2="48.3537" y2="14.0691" gradientUnits="userSpaceOnUse">
<stop stop-color="#007940"/>
<stop offset="0.2285" stop-color="#00873F"/>
<stop offset="0.7433" stop-color="#40A737"/>
<stop offset="1" stop-color="#5CB531"/>
</linearGradient>
<linearGradient id="paint3_linear_2075_680" x1="2.62708" y1="16" x2="23.4582" y2="16" gradientUnits="userSpaceOnUse">
<stop stop-color="#1F286F"/>
<stop offset="0.4751" stop-color="#004E94"/>
<stop offset="0.8261" stop-color="#0066B1"/>
<stop offset="1" stop-color="#006FBC"/>
</linearGradient>
<linearGradient id="paint4_linear_2075_680" x1="15.1733" y1="16.0254" x2="35.4051" y2="16.0254" gradientUnits="userSpaceOnUse">
<stop stop-color="#6C2C2F"/>
<stop offset="0.1735" stop-color="#882730"/>
<stop offset="0.5731" stop-color="#BE1833"/>
<stop offset="0.8585" stop-color="#DC0436"/>
<stop offset="1" stop-color="#E60039"/>
</linearGradient>
<clipPath id="clip0_2075_680">
<rect width="41" height="32" fill="white" transform="translate(0.351807)"/>
</clipPath>
</defs>
</svg>
