<svg width="60" height="60" viewBox="0 0 60 60" fill="none" xmlns="http://www.w3.org/2000/svg">
<path d="M5.0022 53.6301C5.0022 53.3365 5.0022 53.0442 5.0022 52.7507C5.31652 52.3058 5.57736 51.8074 5.95428 51.4238C8.0867 49.2541 10.2478 47.1117 12.3985 44.959C12.5211 44.8363 12.6358 44.7085 12.7558 44.5819C12.7037 44.5858 12.6515 44.5884 12.5993 44.5924C12.1155 43.3398 11.5181 42.1173 11.1673 40.8296C9.84088 35.9643 10.0496 31.0926 11.4699 26.2887C13.5775 19.1637 17.7549 13.6996 24.5304 10.3908C29.1278 8.14542 33.9456 6.57064 38.9813 5.67953C42.1753 5.11459 45.385 4.77537 48.6378 5.18374C52.1748 5.62734 54.1273 7.4748 54.7103 10.9518C55.1054 13.3029 55.0637 15.6566 54.765 18.0038C54.0438 23.6832 52.5557 29.1525 50.1272 34.3491C48.8751 37.029 47.4235 39.5875 45.3055 41.692C41.1737 45.7966 36.1941 48.2912 30.4699 49.2371C25.2634 50.0969 20.1665 49.8555 15.2469 47.2005C15.1869 47.2944 15.1152 47.4718 14.99 47.5971C12.855 49.742 10.7265 51.8935 8.56535 54.0123C8.16104 54.409 7.6263 54.6725 7.15157 54.9974C6.92333 54.9974 6.69639 54.9974 6.46815 54.9974C5.74039 54.7978 5.27609 54.315 5.0022 53.6301ZM24.5174 32.8004C24.5174 32.5108 24.5187 32.349 24.5174 32.1872C24.4887 29.8596 24.4769 27.532 24.413 25.2057C24.4013 24.7935 24.2435 24.3368 24.0165 23.9885C23.5835 23.3244 22.741 23.0921 22.0315 23.3335C21.2203 23.6101 20.7182 24.3055 20.726 25.194C20.7573 28.5471 20.7638 31.9002 20.8577 35.2507C20.8838 36.1574 20.6725 36.815 19.976 37.4047C19.3474 37.9371 18.7722 38.5529 18.2688 39.2052C17.7497 39.8772 17.871 40.737 18.4449 41.4024C18.9705 42.013 19.7648 42.193 20.5238 41.8251C20.8238 41.679 21.1081 41.4676 21.3455 41.2327C23.4479 39.1465 25.5425 37.0538 27.6266 34.9493C27.8784 34.6949 28.1288 34.6022 28.4796 34.6035C32.2214 34.6153 35.9633 34.6114 39.7051 34.6101C39.9164 34.6101 40.129 34.614 40.339 34.5931C41.0798 34.52 41.7358 33.9538 41.9458 33.2179C42.1401 32.5369 41.8988 31.7254 41.2532 31.3339C40.858 31.0952 40.3507 30.9334 39.8916 30.9256C37.3705 30.8877 34.8482 30.9073 32.3271 30.9073C32.1588 30.9073 31.9893 30.9073 31.765 30.9073C31.8328 30.7899 31.8484 30.7442 31.8784 30.7129C33.2922 29.296 34.7021 27.8752 36.1302 26.4739C36.2567 26.3487 36.5019 26.2939 36.6923 26.2926C38.2861 26.2808 39.8812 26.29 41.4749 26.2913C43.1991 26.2926 44.9246 26.303 46.6488 26.29C47.4431 26.2834 48.1356 25.7589 48.3913 25.0244C48.6273 24.3459 48.4121 23.5905 47.8344 23.0804C47.4222 22.7164 46.9331 22.5885 46.3932 22.5885C44.4408 22.5898 42.4883 22.5846 40.5359 22.5794C40.399 22.5794 40.262 22.5637 40.0559 22.552C40.219 22.3785 40.3233 22.2597 40.4355 22.1488C42.2288 20.3522 44.0247 18.5583 45.8167 16.7604C45.9771 16.5999 46.1415 16.4381 46.2771 16.2568C47.0805 15.183 46.4519 13.62 45.1346 13.3682C44.3534 13.2194 43.7821 13.5613 43.2657 14.0779C39.9177 17.4271 36.5697 20.775 33.2218 24.1228C33.094 24.2507 32.9583 24.3681 32.7484 24.5638C32.7484 24.252 32.7484 24.0759 32.7484 23.8997C32.747 21.6048 32.7575 19.3098 32.7405 17.0148C32.734 16.0754 32.0558 15.35 31.1337 15.2143C30.3016 15.093 29.4304 15.6305 29.1643 16.472C29.073 16.7604 29.0535 17.08 29.0535 17.3853C29.0456 20.8676 29.0443 24.3512 29.0561 27.8334C29.0574 28.1713 28.9557 28.4075 28.717 28.6423C27.4532 29.8857 26.205 31.1461 24.9491 32.3999C24.8395 32.5121 24.7208 32.6139 24.5174 32.8004Z" fill="#AF9574"/>
<path d="M5.0022 53.6289C5.27609 54.3139 5.74039 54.7953 6.46685 54.9962C5.97906 54.9962 5.48998 54.9962 5.0022 54.9962C5.0022 54.5409 5.0022 54.0856 5.0022 53.6289Z" fill="white"/>
</svg>
