<svg width="16" height="16" viewBox="0 0 16 16" fill="none" xmlns="http://www.w3.org/2000/svg">
<path d="M3.78402 5.85742H0.441895V15.286H3.78402V5.85742Z" fill="white"/>
<path d="M2.11296 4.14342C3.03586 4.14342 3.78402 3.3759 3.78402 2.42913C3.78402 1.48236 3.03586 0.714844 2.11296 0.714844C1.19006 0.714844 0.441895 1.48236 0.441895 2.42913C0.441895 3.3759 1.19006 4.14342 2.11296 4.14342Z" fill="white"/>
<path d="M11.7225 5.21484C10.582 5.21827 9.50505 5.7557 8.79819 6.67542V5.8577H5.45605V15.2863H8.79819V9.28627C8.79819 8.33999 9.54682 7.57199 10.4693 7.57199C11.3917 7.57199 12.1403 8.33999 12.1403 9.28627V15.2863H15.4824V9.07199C15.4824 6.94199 13.7988 5.21484 11.7225 5.21484Z" fill="white"/>
</svg>
