<svg width="123" height="160" viewBox="0 0 123 160" fill="none" xmlns="http://www.w3.org/2000/svg">
<path d="M17.4797 80.3589C17.4797 80.3589 19.8877 78.6135 20.9667 75.119C20.9667 75.119 23.2459 78.5567 28.6599 78.7574L17.4797 80.3589Z" fill="#282B2D"/>
<path d="M13.2318 91.9935V24.6927C13.2318 18.2564 18.449 13.0392 24.8852 13.0392H50.8083C57.2446 13.0392 67.6752 13.0392 74.1115 13.0392H97.4336C103.87 13.0392 109.087 18.2564 109.087 24.6927V91.9935H13.2318Z" fill="#AF9574"/>
<path d="M61.6478 65.3927C61.6478 65.3927 57.8277 57.3208 49.2636 57.2868C41.4416 57.2565 37.614 62.1291 37.614 62.1291C37.614 62.1291 35.0357 59.2479 30.2652 60.4216C30.2652 60.4216 31.9803 53.5537 39.0262 54.9508C39.0262 54.9508 40.7223 48.7681 47.0185 49.196C51.1074 49.4723 53.0913 51.8613 53.841 53.0312C53.841 53.0312 57.2446 50.1046 61.3449 50.824C67.0732 51.8273 68.9965 56.3933 69.4471 58.0591C69.4433 58.0591 63.4159 59.9332 61.6478 65.3927Z" fill="#ECE3D1"/>
<path d="M52.1221 71.4352C52.1221 71.4352 54.0757 65.8962 60.8755 66.7784C60.8755 66.7784 56.9607 59.4486 50.1231 59.0548C43.2855 58.6611 38.8633 62.4244 37.773 64.4878C37.8033 64.431 35.5089 61.2772 31.2004 61.7618C26.2217 62.3222 22.3524 67.7968 24.7035 72.5824C25.6008 74.411 27.7854 75.6036 29.7806 75.8497C30.2766 75.9103 30.7801 75.9179 31.2799 75.8687C35.9443 75.4219 36.5955 70.076 34.3428 68.9515C32.8927 68.2246 31.9122 68.8039 31.2193 69.7807C30.9846 70.1139 30.1857 70.0874 29.9888 69.7277L29.9661 69.686C29.8525 69.4778 29.8677 69.1333 30.1479 68.6752C30.5719 67.9823 32.0371 66.5663 34.5359 67.3046C38.2008 68.3874 37.046 72.8171 37.046 72.8171C37.046 72.8171 44.0313 66.4414 52.1221 71.4352Z" fill="#ECE3D1"/>
<path d="M70.4845 57.9342L72.3093 48.4047C72.4532 47.7383 72.4002 47.0455 72.192 46.3943C71.9989 45.7885 71.9004 45.0729 72.4797 44.9896C73.5057 44.842 73.7745 45.5575 77.1366 46.0611C79.2946 46.3829 77.4622 47.7686 77.2123 48.2154C76.7882 48.9764 75.0656 56.6772 75.0883 57.2981C75.0883 57.2981 71.8739 57.3397 70.4845 57.9342Z" fill="#282B2D"/>
<path d="M78.2383 43.8652C78.2421 44.3764 79.1848 46.47 77.1365 45.7166C73.9487 44.5429 73.3656 45.0427 72.5365 44.418C72.0708 44.0697 72.4986 43.4904 72.9605 43.0512C73.4565 42.5818 73.8351 41.9987 74.0282 41.3437C74.0282 41.3437 77.7158 22.5801 77.659 22.368C77.4924 21.7623 77.553 20.581 78.4124 20.5242C79.1545 20.475 79.7224 20.846 80.4342 21.0316C81.3807 21.2777 81.835 21.3647 82.7853 21.6032C83.4592 21.7736 84.4209 22.1484 84.3338 22.9889C84.2581 23.7159 83.7243 23.6212 83.4176 24.5829C81.7025 29.9212 78.2345 43.127 78.2383 43.8652Z" fill="#282B2D"/>
<path d="M76.19 57.2905L81.1763 49.1657C81.5397 48.5864 81.7215 47.9163 81.7442 47.2348C81.7669 46.5987 81.9183 45.8945 82.4862 46.0119C83.5009 46.2201 83.5123 46.9849 86.507 48.594C88.4266 49.6276 86.2382 50.3091 85.852 50.646C85.1971 51.2177 81.0135 57.9304 80.8242 58.521C80.828 58.5172 78.7797 57.4041 76.19 57.2905Z" fill="#282B2D"/>
<path d="M88.4644 46.7199C88.2941 47.2007 88.4758 49.4913 86.8023 48.0904C84.1975 45.9097 83.482 46.1823 82.9103 45.3153C82.5885 44.8269 83.1867 44.4293 83.7697 44.1719C84.3944 43.8955 84.9472 43.479 85.3523 42.9263C85.3523 42.9263 93.4961 29.198 93.5112 28.9785C93.5604 28.3538 94.0148 27.2596 94.8401 27.4943C95.5557 27.6988 95.9646 28.2402 96.5704 28.6566C97.3768 29.2094 97.7781 29.4441 98.5883 29.9893C99.1638 30.3755 99.9437 31.057 99.5765 31.818C99.2585 32.4768 98.7928 32.208 98.1756 33.0106C94.7644 37.4554 88.7067 46.0233 88.4644 46.7199Z" fill="#282B2D"/>
<path d="M8.87784 96.5481L25.9643 119.541C27.3159 121.358 29.4475 122.43 31.7115 122.43H50.9447C56.548 122.43 61.1594 126.973 61.1594 132.576C61.1594 126.973 65.7708 122.43 71.3742 122.43H90.6073C92.8714 122.43 95.0029 121.358 96.3546 119.541L113.441 96.5481H8.87784Z" fill="#282B2D"/>
<path d="M71.5559 43.7365C71.5559 43.7365 74.0661 31.1327 64.4116 24.2686C64.4116 24.2686 63.5106 37.3721 71.5559 43.7365Z" fill="#ECE3D1"/>
<path d="M71.5824 45.3531C71.5824 45.3531 67.7396 39.3257 59.3648 40.3214C59.3648 40.3214 63.7491 46.5154 71.5824 45.3531Z" fill="#ECE3D1"/>
<path d="M88.8771 48.1358C88.8771 48.1358 95.3626 40.1548 104.517 42.6006C104.517 42.6044 96.8997 49.8471 88.8771 48.1358Z" fill="#ECE3D1"/>
<path d="M88.9112 49.1657C88.9112 49.1657 98.6337 47.9503 104.907 57.6654C104.903 57.6654 94.5335 58.4529 88.9112 49.1657Z" fill="#ECE3D1"/>
<path d="M87.7829 49.7033C87.7829 49.7033 92.9055 54.0535 90.9064 61.724C90.9026 61.7202 85.6968 56.8476 87.7829 49.7033Z" fill="#ECE3D1"/>
<path d="M76.5232 66.2332C79.3703 66.3203 81.2444 68.6373 81.9448 69.8905C82.1569 70.2691 82.0243 70.7499 81.6533 70.9809C81.2596 71.2232 80.7409 71.0945 80.5175 70.6894C79.7489 69.3037 78.1474 67.6492 75.3268 68.1943C72.7523 68.6941 71.5711 70.9922 71.8929 73.4645C72.0102 74.3543 72.3055 75.1872 72.7599 75.9255H84.9169C85.924 74.4943 86.526 72.7149 86.6623 71.0907C87.0939 66.0212 84.0234 61.8944 79.3968 59.8991C72.3888 56.8778 63.8967 61.1637 62.0983 68.4594C55.8097 66.9525 53.7917 70.8295 53.1443 73.4759C49.4113 71.1626 42.6343 68.8077 35.8837 75.9028H70.9615C68.6709 69.3756 72.6425 66.1196 76.5232 66.2332Z" fill="#ECE3D1"/>
<path d="M111.132 85.0953C102.719 78.7953 102.745 78.7612 102.745 78.7612H61.1594H19.5696C19.5696 78.7612 19.5961 78.7953 11.1835 85.0953C4.16041 90.3541 0.00332459 86.2122 0.00332459 86.2122C-0.182192 94.7838 7.45806 93.6669 7.45806 93.6669H61.1594H114.861C114.861 93.6669 122.501 94.7838 122.316 86.2122C122.312 86.2122 118.155 90.3541 111.132 85.0953Z" fill="#282B2D"/>
<path d="M60.7657 116.834C64.7051 116.834 67.8986 113.64 67.8986 109.701C67.8986 105.761 64.7051 102.568 60.7657 102.568C56.8263 102.568 53.6328 105.761 53.6328 109.701C53.6328 113.64 56.8263 116.834 60.7657 116.834Z" fill="#ECE3D1"/>
<path d="M63.9422 137.108C64.972 136.268 65.6269 134.992 65.6269 133.564C65.6269 131.039 63.5787 128.991 61.0534 128.991C58.5281 128.991 56.4798 131.039 56.4798 133.564C56.4798 135.098 57.2371 136.453 58.3956 137.282L54.6209 159.215H61.0118H61.2957H67.6866L63.9422 137.108Z" fill="#AF9574"/>
<path d="M104.847 80.3589C104.847 80.3589 102.439 78.6135 101.36 75.119C101.36 75.119 99.0805 78.5567 93.6664 78.7574L104.847 80.3589Z" fill="#282B2D"/>
<path d="M86.8288 75.9255H94.0337C94.0337 75.9255 97.0285 75.827 98.9707 72.8436C98.9707 72.8436 97.2897 65.7864 88.0745 65.7864C88.0782 65.7827 89.9107 71.9842 86.8288 75.9255Z" fill="#ECE3D1"/>
<path d="M83.7811 10.3397H36.9362C36.9362 7.0042 39.6395 4.30475 42.9712 4.30475H77.7423C81.0778 4.30475 83.7811 7.0042 83.7811 10.3397Z" fill="#AF9574"/>
<path d="M60.6597 9.59385C63.3089 9.59385 65.4566 7.4462 65.4566 4.79693C65.4566 2.14766 63.3089 0 60.6597 0C58.0104 0 55.8627 2.14766 55.8627 4.79693C55.8627 7.4462 58.0104 9.59385 60.6597 9.59385Z" fill="#AF9574"/>
</svg>
