<svg width="31" height="30" viewBox="0 0 31 30" fill="none" xmlns="http://www.w3.org/2000/svg">
<path d="M15.4873 25.4824C12.6973 25.4824 9.91727 25.4924 7.12727 25.4824C4.60727 25.4724 2.54727 23.8024 2.04727 21.3424C1.97727 21.0124 1.95727 20.6624 1.94727 20.3224C1.94727 16.7824 1.94727 13.2324 1.94727 9.69241C1.94727 8.90241 2.10727 8.15241 2.44727 7.44241C2.61727 7.09241 2.68727 7.08241 2.96727 7.35241C5.54727 9.94241 8.13727 12.5124 10.7073 15.1024C12.0573 16.4624 13.6773 17.1924 15.6073 17.1624C17.4073 17.1324 18.9373 16.4524 20.2073 15.1724C22.7773 12.5924 25.3573 10.0224 27.9273 7.45241C27.9873 7.39241 28.0373 7.34241 28.0973 7.28241C28.2973 7.09241 28.3873 7.11241 28.5173 7.36241C28.8373 7.99241 29.0373 8.66241 29.0373 9.36241C29.0473 13.1124 29.0673 16.8624 29.0373 20.6024C29.0173 22.9624 27.0473 25.0924 24.7073 25.4024C24.3873 25.4424 24.0673 25.4624 23.7373 25.4624C20.9873 25.4824 18.2373 25.4824 15.4873 25.4824Z" fill="#AF9574"/>
<path d="M15.5076 4.5127C18.2676 4.5127 21.0176 4.5227 23.7776 4.5127C24.8376 4.5127 25.8176 4.7627 26.6976 5.3427C26.9776 5.5227 26.9876 5.5927 26.7476 5.8327C24.0676 8.5227 21.3876 11.2127 18.6976 13.8827C16.9276 15.6427 14.0776 15.6427 12.3076 13.8827C9.59763 11.2127 6.91763 8.5127 4.22763 5.8227C3.99763 5.5927 4.00763 5.5227 4.27763 5.3527C5.08763 4.8327 5.96763 4.5327 6.93763 4.5227C9.79763 4.5127 12.6476 4.5227 15.5076 4.5127Z" fill="#AF9574"/>
</svg>
