<svg width="41" height="32" viewBox="0 0 41 32" fill="none" xmlns="http://www.w3.org/2000/svg">
<g filter="url(#filter0_d_2075_654)">
<path d="M14.1221 18.9293C19.5284 18.9293 23.9111 14.6919 23.9111 9.46466C23.9111 4.23748 19.5284 0 14.1221 0C8.7158 0 4.33313 4.23748 4.33313 9.46466C4.33313 14.6919 8.7158 18.9293 14.1221 18.9293Z" fill="#EE0005"/>
<path d="M26.2826 18.9293C31.6889 18.9293 36.0716 14.6919 36.0716 9.46466C36.0716 4.23748 31.6889 0 26.2826 0C20.8763 0 16.4937 4.23748 16.4937 9.46466C16.4937 14.6919 20.8763 18.9293 26.2826 18.9293Z" fill="#F9A000"/>
<path d="M16.4938 9.46361C16.4938 12.4688 17.9427 15.1466 20.2016 16.8803C22.4605 15.1466 23.9095 12.4688 23.9095 9.46361C23.9095 6.45839 22.4606 3.78058 20.2016 2.04688C17.9428 3.78072 16.4938 6.45846 16.4938 9.46361Z" fill="#FF6300"/>
<path d="M8.61781 23.9278V21.8542C8.61781 21.266 8.29212 20.9868 7.74521 20.9868C7.29048 20.9868 6.89721 21.2482 6.72515 21.5096C6.61454 21.1828 6.33801 20.9868 5.90172 20.9868C5.44699 20.9868 5.05371 21.2601 4.93081 21.4324V21.0581H4.15039V23.9278H4.93081V21.9968C5.04756 21.8364 5.27493 21.6581 5.54531 21.6581C5.86485 21.6581 5.98775 21.8483 5.98775 22.1156V23.9278H6.77431V21.9909C6.88492 21.8364 7.11228 21.6581 7.38881 21.6581C7.70834 21.6581 7.83125 21.8483 7.83125 22.1156V23.9278H8.61781Z" fill="#170C4A"/>
<path d="M11.9457 23.9278V22.074C11.9457 21.2482 11.3251 20.9868 10.6491 20.9868C10.1821 20.9868 9.71507 21.1294 9.35252 21.4383L9.64748 21.9433C9.89942 21.7176 10.1944 21.6047 10.5139 21.6047C10.9072 21.6047 11.1653 21.7948 11.1653 22.0859V22.4721C10.9687 22.2463 10.6184 22.1216 10.2251 22.1216C9.75194 22.1216 9.19275 22.3771 9.19275 23.0484C9.19275 23.6901 9.75194 23.9991 10.2251 23.9991C10.6122 23.9991 10.9625 23.8624 11.1653 23.6307V23.9278H11.9457ZM10.5385 23.4881C10.2313 23.4881 9.97931 23.3336 9.97931 23.0663C9.97931 22.787 10.2313 22.6325 10.5385 22.6325C10.7904 22.6325 11.0362 22.7157 11.1653 22.8821V23.2386C11.0362 23.4049 10.7904 23.4881 10.5385 23.4881Z" fill="#170C4A"/>
<path d="M13.789 23.9991C14.6124 23.9991 15.0733 23.601 15.0733 23.0781C15.0733 21.9196 13.3158 22.2761 13.3158 21.8483C13.3158 21.6879 13.5002 21.5631 13.7829 21.5631C14.1454 21.5631 14.4834 21.7116 14.6616 21.8958L14.975 21.3789C14.68 21.1531 14.2806 20.9868 13.7767 20.9868C12.9963 20.9868 12.56 21.4086 12.56 21.8899C12.56 23.0187 14.3236 22.6325 14.3236 23.1079C14.3236 23.2861 14.1639 23.4168 13.8259 23.4168C13.4572 23.4168 13.0147 23.2207 12.7997 23.0247L12.4617 23.5535C12.7751 23.8327 13.2728 23.9991 13.789 23.9991Z" fill="#170C4A"/>
<path d="M16.6437 23.9991C16.9694 23.9991 17.1784 23.9159 17.2951 23.8149L17.1292 23.2445C17.0862 23.2861 16.9756 23.3277 16.8588 23.3277C16.6868 23.3277 16.5884 23.191 16.5884 23.0128V21.7176H17.1907V21.0581H16.5884V20.2738H15.8019V21.0581H15.3103V21.7176H15.8019V23.2148C15.8019 23.7258 16.0968 23.9991 16.6437 23.9991Z" fill="#170C4A"/>
<path d="M19.1195 23.9991C19.5804 23.9991 20.0474 23.8624 20.3424 23.601L19.9982 23.1138C19.8078 23.292 19.4575 23.399 19.2055 23.399C18.7017 23.399 18.4005 23.096 18.3514 22.7335H20.5574V22.5672C20.5574 21.6284 19.9552 20.9868 19.0704 20.9868C18.167 20.9868 17.5341 21.6581 17.5341 22.4899C17.5341 23.4109 18.2162 23.9991 19.1195 23.9991ZM19.8016 22.2226H18.3391C18.376 21.9374 18.5849 21.5868 19.0704 21.5868C19.5865 21.5868 19.7832 21.9493 19.8016 22.2226Z" fill="#170C4A"/>
<path d="M21.9016 23.9278V22.0325C22.0306 21.8483 22.3747 21.7057 22.6328 21.7057C22.7188 21.7057 22.7926 21.7116 22.8479 21.7235V20.9868C22.4792 20.9868 22.1105 21.1947 21.9016 21.4502V21.0581H21.1211V23.9278H21.9016Z" fill="#170C4A"/>
<path d="M26.2904 23.9991C26.8987 23.9991 27.2674 23.7436 27.4641 23.4762L26.954 23.0187C26.8127 23.2089 26.5976 23.3277 26.3273 23.3277C25.8541 23.3277 25.5223 22.989 25.5223 22.4899C25.5223 21.9909 25.8541 21.6581 26.3273 21.6581C26.5976 21.6581 26.8127 21.7651 26.954 21.9671L27.4641 21.5037C27.2674 21.2422 26.8987 20.9868 26.2904 20.9868C25.3748 20.9868 24.7173 21.6106 24.7173 22.4899C24.7173 23.3752 25.3748 23.9991 26.2904 23.9991Z" fill="#170C4A"/>
<path d="M30.5367 23.9278V22.074C30.5367 21.2482 29.9161 20.9868 29.2401 20.9868C28.7731 20.9868 28.3061 21.1294 27.9435 21.4383L28.2385 21.9433C28.4904 21.7176 28.7854 21.6047 29.1049 21.6047C29.4982 21.6047 29.7563 21.7948 29.7563 22.0859V22.4721C29.5597 22.2463 29.2094 22.1216 28.8161 22.1216C28.343 22.1216 27.7838 22.3771 27.7838 23.0484C27.7838 23.6901 28.343 23.9991 28.8161 23.9991C29.2033 23.9991 29.5535 23.8624 29.7563 23.6307V23.9278H30.5367ZM29.1295 23.4881C28.8223 23.4881 28.5703 23.3336 28.5703 23.0663C28.5703 22.787 28.8223 22.6325 29.1295 22.6325C29.3815 22.6325 29.6273 22.7157 29.7563 22.8821V23.2386C29.6273 23.4049 29.3815 23.4881 29.1295 23.4881Z" fill="#170C4A"/>
<path d="M32.0912 23.9278V22.0325C32.2203 21.8483 32.5644 21.7057 32.8225 21.7057C32.9085 21.7057 32.9822 21.7116 33.0375 21.7235V20.9868C32.6688 20.9868 32.3001 21.1947 32.0912 21.4502V21.0581H31.3108V23.9278H32.0912Z" fill="#170C4A"/>
<path d="M36.3519 23.9278V19.9648H35.5653V21.4264C35.3318 21.1353 35 20.9868 34.6497 20.9868C33.8939 20.9868 33.3347 21.5571 33.3347 22.4959C33.3347 23.4525 33.9 23.9991 34.6497 23.9991C35.0061 23.9991 35.3318 23.8446 35.5653 23.5594V23.9278H36.3519ZM34.8894 23.3277C34.4469 23.3277 34.1397 22.989 34.1397 22.4959C34.1397 21.9968 34.4469 21.6581 34.8894 21.6581C35.1536 21.6581 35.4363 21.7948 35.5653 21.9849V23.0009C35.4363 23.191 35.1536 23.3277 34.8894 23.3277Z" fill="#170C4A"/>
</g>
<defs>
<filter id="filter0_d_2075_654" x="0.150391" y="0" width="40.2014" height="32" filterUnits="userSpaceOnUse" color-interpolation-filters="sRGB">
<feFlood flood-opacity="0" result="BackgroundImageFix"/>
<feColorMatrix in="SourceAlpha" type="matrix" values="0 0 0 0 0 0 0 0 0 0 0 0 0 0 0 0 0 0 127 0" result="hardAlpha"/>
<feOffset dy="4"/>
<feGaussianBlur stdDeviation="2"/>
<feComposite in2="hardAlpha" operator="out"/>
<feColorMatrix type="matrix" values="0 0 0 0 0 0 0 0 0 0 0 0 0 0 0 0 0 0 0.25 0"/>
<feBlend mode="normal" in2="BackgroundImageFix" result="effect1_dropShadow_2075_654"/>
<feBlend mode="normal" in="SourceGraphic" in2="effect1_dropShadow_2075_654" result="shape"/>
</filter>
</defs>
</svg>
