<svg width="31" height="30" viewBox="0 0 31 30" fill="none" xmlns="http://www.w3.org/2000/svg">
<path d="M19.4384 27.4756C19.1015 27.4146 18.7646 27.3659 18.4277 27.3049C17.0441 27.0366 15.7808 26.4757 14.5896 25.7441C12.7247 24.5979 11.1245 23.1225 9.65661 21.4886C8.16468 19.8303 6.79306 18.0622 5.72224 16.0869C4.92814 14.6236 4.32657 13.0994 4.09797 11.4289C3.8453 9.57551 4.06187 7.78306 4.97628 6.12474C5.45754 5.24681 6.0832 4.503 6.86526 3.86894C7.23825 3.5763 7.57513 3.23488 7.94811 2.94223C8.73017 2.32036 9.58443 2.34475 10.2823 3.07636C10.6793 3.49094 11.0523 3.9421 11.3772 4.42984C11.9787 5.33217 12.5924 6.22229 12.9533 7.27094C13.3143 8.34397 13.1699 9.30726 12.3156 10.0876C11.8825 10.4778 11.4373 10.8802 10.956 11.2216C9.93334 11.9411 9.78897 12.819 10.174 13.953C10.5349 15.0016 11.1485 15.8918 11.8223 16.7453C12.6886 17.8671 13.6271 18.9279 14.722 19.8303C15.3236 20.3302 15.9612 20.7814 16.7433 20.9643C17.4291 21.1228 18.0066 20.9399 18.512 20.4643C19.0173 19.9888 19.5106 19.501 20.04 19.0499C20.8942 18.3183 21.8447 18.2939 22.8193 18.7938C23.1442 18.9645 23.457 19.1352 23.7458 19.3669C24.7564 20.1717 25.7911 20.9521 26.5612 22.0129C27.1988 22.8908 27.1507 23.7322 26.3566 24.4638C25.5866 25.171 24.8527 25.9392 23.9383 26.4636C22.9998 27.0001 21.9891 27.3415 20.9183 27.4512C20.8461 27.4634 20.7739 27.4756 20.7138 27.5C20.2686 27.4756 19.8475 27.4756 19.4384 27.4756Z" fill="#AF9574"/>
</svg>
