<svg width="18" height="22" viewBox="0 0 18 22" fill="none" xmlns="http://www.w3.org/2000/svg">
<path d="M16.2453 20.857C16.6077 21.2737 17.2393 21.3178 17.6561 20.9554C18.0729 20.593 18.1169 19.9614 17.7545 19.5446L16.2453 20.857ZM13.8879 15.0979C13.5255 14.6812 12.8938 14.6371 12.4771 14.9995C12.0603 15.3619 12.0162 15.9935 12.3786 16.4103L13.8879 15.0979ZM14.2222 9.97856C14.2222 14.0785 11.3595 17.1563 8.11111 17.1563V19.1563C12.7174 19.1563 16.2222 14.9115 16.2222 9.97856H14.2222ZM8.11111 17.1563C4.8627 17.1563 2 14.0785 2 9.97856H0C0 14.9115 3.50481 19.1563 8.11111 19.1563V17.1563ZM2 9.97856C2 5.87857 4.8627 2.80078 8.11111 2.80078V0.800781C3.50481 0.800781 0 5.04562 0 9.97856H2ZM8.11111 2.80078C11.3595 2.80078 14.2222 5.87857 14.2222 9.97856H16.2222C16.2222 5.04562 12.7174 0.800781 8.11111 0.800781V2.80078ZM17.7545 19.5446L13.8879 15.0979L12.3786 16.4103L16.2453 20.857L17.7545 19.5446Z" fill="#363636"/>
</svg>
