<svg width="60" height="60" viewBox="0 0 60 60" fill="none" xmlns="http://www.w3.org/2000/svg">
<path d="M9.50012 31.2908C9.50012 30.4364 9.50012 29.5831 9.50012 28.7288C9.52365 28.6133 9.56109 28.4978 9.56965 28.3802C9.67555 26.8981 9.95687 25.4492 10.3933 24.0303C13.6237 13.5234 24.5481 7.40058 35.1345 10.1615C45.7027 12.9171 52.2298 23.3491 50.0969 34.0763C48.4635 42.2949 41.7974 48.7813 33.5332 50.1852C32.7877 50.3125 32.0335 50.3959 31.2837 50.4996C30.4291 50.4996 29.5755 50.4996 28.7208 50.4996C28.6331 50.4772 28.5454 50.4397 28.4566 50.4344C26.7195 50.3114 25.0177 49.9917 23.3843 49.3865C15.9373 46.632 11.4191 41.3507 9.82423 33.5791C9.6702 32.8252 9.60602 32.0543 9.50012 31.2908ZM29.9958 43.5299C30.2761 43.5299 30.5563 43.5396 30.8366 43.5278C31.1029 43.516 31.3693 43.4893 31.6335 43.4583C34.2563 43.1503 36.6224 42.2382 38.6045 40.4546C40.1063 39.1041 41.0893 37.4435 41.5064 35.4589C41.6829 34.6163 41.085 33.9843 40.225 34.1094C40.133 34.1223 40.0421 34.1469 39.9533 34.1768C37.308 35.0772 34.5793 35.5156 31.795 35.6492C28.7411 35.7957 25.714 35.6054 22.7297 34.92C21.7958 34.7061 20.8834 34.4014 19.9571 34.1565C18.988 33.9009 18.313 34.5521 18.5184 35.5209C18.9302 37.4649 19.8961 39.0924 21.3626 40.4151C23.8122 42.6232 26.7558 43.4979 29.9958 43.5299ZM37.5262 22.6466C36.0736 22.6423 34.8959 23.8025 34.8853 25.2482C34.8735 26.7142 36.0555 27.9097 37.5134 27.9075C38.9521 27.9054 40.1373 26.7206 40.1405 25.2813C40.1437 23.8378 38.966 22.6509 37.5262 22.6466ZM25.1236 25.2856C25.1257 23.8335 23.9598 22.653 22.5211 22.6477C21.0524 22.6423 19.8758 23.8143 19.8747 25.2856C19.8737 26.7228 21.0599 27.9075 22.5007 27.9097C23.9416 27.9097 25.1214 26.7302 25.1236 25.2856Z" fill="#AF9574"/>
</svg>
