<svg width="73" height="22" viewBox="0 0 73 22" fill="none" xmlns="http://www.w3.org/2000/svg">
<path d="M26.2578 21.6576L29.8673 0.34375H35.711L32.1017 21.6576H26.2578Z" fill="#293688"/>
<path d="M52.9036 0.894564C51.7455 0.46261 49.9311 0 47.6652 0C41.8898 0 37.8217 2.8915 37.7866 7.03408C37.7546 10.096 40.6907 11.8039 42.9088 12.8243C45.1834 13.8669 45.9484 14.536 45.9372 15.4677C45.9231 16.8964 44.1198 17.5495 42.4396 17.5495C40.1009 17.5487 38.8578 17.2262 36.9382 16.4308L36.1852 16.0912L35.3645 20.8626C36.7298 21.4578 39.2547 21.9739 41.8757 22C48.0182 21.9986 52.0075 19.1429 52.0523 14.7179C52.0746 12.2936 50.5171 10.4485 47.1453 8.92692C45.1022 7.94218 43.8509 7.2845 43.8644 6.28503C43.8644 5.39942 44.9242 4.45211 47.2116 4.45211C49.1227 4.42225 50.5074 4.83649 51.5867 5.26845L52.1096 5.51428L52.9036 0.894564Z" fill="#293688"/>
<path d="M62.8684 0.34375C61.4682 0.34375 60.4566 0.771325 59.8413 2.15895L51.1805 21.6584H57.3678L58.5707 18.3923H65.9631L66.6499 21.6584H72.1504L67.3382 0.344348H62.8686L62.8684 0.34375ZM60.2124 14.1275C60.6951 12.9001 62.5399 8.17028 62.5399 8.17028C62.5065 8.22621 63.0203 6.93692 63.3153 6.13691L63.7108 7.97361C63.7108 7.97361 64.8287 13.0615 65.0634 14.1281H60.2124V14.1275Z" fill="#293688"/>
<path d="M15.6008 14.9541L15.0861 12.0322C14.0195 8.62612 10.7094 4.94077 7.00018 3.09432L12.1633 21.6576H18.352L27.6333 0.34375H21.446L15.6008 14.9541Z" fill="#293688"/>
<path d="M0.648193 0.34375V0.687921C7.98106 2.45157 13.0719 6.91025 15.0874 12.0324L12.9684 2.16273C12.6147 0.813923 11.5428 0.390726 10.2744 0.343947L0.648193 0.34375Z" fill="#F7981D"/>
</svg>
