<svg width="17" height="15" viewBox="0 0 17 15" fill="none" xmlns="http://www.w3.org/2000/svg">
<path d="M16.6832 2.3383C16.0996 2.61408 15.4716 2.80009 14.8125 2.88334C15.4854 2.45512 16.0013 1.77682 16.2446 0.967664C15.6153 1.36471 14.9186 1.65281 14.1764 1.80834C13.5822 1.13553 12.7356 0.714844 11.7992 0.714844C10.0007 0.714844 8.54248 2.26499 8.54248 4.17724C8.54248 4.44822 8.57116 4.71235 8.62691 4.96619C5.92032 4.82163 3.51986 3.44345 1.91343 1.34826C1.63307 1.85939 1.47291 2.45444 1.47291 3.08923C1.47291 4.29064 2.04749 5.35056 2.92144 5.97096C2.38811 5.95281 1.8854 5.79694 1.44649 5.53761C1.44617 5.552 1.44617 5.56673 1.44617 5.58146C1.44617 7.2587 2.56857 8.65778 4.05866 8.97637C3.78539 9.05482 3.49762 9.09764 3.20051 9.09764C2.99072 9.09764 2.78641 9.07606 2.58791 9.03529C3.00232 10.4107 4.20529 11.4121 5.62997 11.4398C4.5153 12.3685 3.11157 12.9221 1.58506 12.9221C1.32242 12.9221 1.06301 12.9057 0.808105 12.8735C2.24986 13.8563 3.96167 14.4291 5.80076 14.4291C11.7918 14.4291 15.0674 9.15348 15.0674 4.57806C15.0674 4.42801 15.0645 4.2783 15.0584 4.12928C15.6946 3.64283 16.2469 3.0327 16.6832 2.3383Z" fill="white"/>
</svg>
